<?xml version="1.0" encoding="UTF-8"?>
<svg id="Layer_2" data-name="Layer 2" xmlns="http://www.w3.org/2000/svg" viewBox="0 0 150.78 65.65">
  <defs>
    <style>
      .cls-1 {
        fill: #3f3f3f;
      }

      .cls-1, .cls-2 {
        stroke-width: 0px;
      }

      .cls-2 {
        fill: #fff;
      }
    </style>
  </defs>
  <g id="Layer_3" data-name="Layer 3">
    <g>
      <path class="cls-1" d="M127.21,32.5c-.21.22-.43.44-.65.64h-.01c-1.1.98-2.27,1.65-3.48,2.09-1.21.45-2.46.68-3.67.77-1.08-2.33-3.66-3.94-7.11-3.72-1.83.13-3.54.66-5.1,1.5-.8-.42-1.48-.88-2.07-1.34-1.25-.97-2.04-1.95-2.48-2.62t-.02-.02c-.17-.25-.29-.46-.37-.61-.01,0,0-.02,0-.02-.08-.14-.11-.21-.11-.21.02-.02.04-.03.06-.05.42-.37.87-.71,1.33-1.01,3.78-2.49,8.59-2.86,11.15-2.44.05,0,.1,0,.14.02.46.08.9.17,1.32.27h.02c5.74,1.31,8.74,3.87,10.09,5.43.69.79.96,1.32.96,1.32Z"/>
      <g>
        <path class="cls-1" d="M63.7,38.27c-.35-2.96-4.1-2.62-5.98-1.46-4.96,3.05-5.27,7.2-5.27,7.2,0,0,12.18,2.1,11.25-5.74ZM63.7,38.27c-.35-2.96-4.1-2.62-5.98-1.46-4.96,3.05-5.27,7.2-5.27,7.2,0,0,12.18,2.1,11.25-5.74ZM63.7,38.27c-.35-2.96-4.1-2.62-5.98-1.46-4.96,3.05-5.27,7.2-5.27,7.2,0,0,12.18,2.1,11.25-5.74ZM63.7,38.27c-.35-2.96-4.1-2.62-5.98-1.46-4.96,3.05-5.27,7.2-5.27,7.2,0,0,12.18,2.1,11.25-5.74ZM63.7,38.27c-.35-2.96-4.1-2.62-5.98-1.46-4.96,3.05-5.27,7.2-5.27,7.2,0,0,12.18,2.1,11.25-5.74ZM63.7,38.27c-.35-2.96-4.1-2.62-5.98-1.46-4.96,3.05-5.27,7.2-5.27,7.2,0,0,12.18,2.1,11.25-5.74ZM63.7,38.27c-.35-2.96-4.1-2.62-5.98-1.46-4.96,3.05-5.27,7.2-5.27,7.2,0,0,12.18,2.1,11.25-5.74ZM63.7,38.27c-.35-2.96-4.1-2.62-5.98-1.46-4.96,3.05-5.27,7.2-5.27,7.2,0,0,12.18,2.1,11.25-5.74ZM63.7,38.27c-.35-2.96-4.1-2.62-5.98-1.46-4.96,3.05-5.27,7.2-5.27,7.2,0,0,12.18,2.1,11.25-5.74ZM63.7,38.27c-.35-2.96-4.1-2.62-5.98-1.46-4.96,3.05-5.27,7.2-5.27,7.2,0,0,12.18,2.1,11.25-5.74ZM63.7,38.27c-.35-2.96-4.1-2.62-5.98-1.46-4.96,3.05-5.27,7.2-5.27,7.2,0,0,12.18,2.1,11.25-5.74ZM63.7,38.27c-.35-2.96-4.1-2.62-5.98-1.46-4.96,3.05-5.27,7.2-5.27,7.2,0,0,12.18,2.1,11.25-5.74ZM150.77,54.32c-.11-2.52-2.49-8.72-8.38-12.44-8.99-5.67-18.13-1.79-18.13-1.79,0,0,.04-2.35-1.19-4.86-.15-.31-.32-.63-.51-.94-2.01-3.25-9.45-7.18-17.44-1.85-1.21.8-2.43,1.83-3.65,3.1.9-.94-1.27-4.35-4.11-5.11-4.22-1.13-9.15,2.18-10.49,4.77-2.29-2.03-4.35-4.75-7.67-5.29-3.89-.63-8.5,3.23-7.29,5.91-2.27-5.01-7.79-6.52-11.97-6.26-6.25.38-9.41,4.69-9.41,4.69,0,0-1.86-1.85-2.78-2.78,2.03-2.44,4.17-3.52,5.68-6.68,1.53-3.77-.98-8.7-4.11-10.09-5.75-2.52-9.82,1.12-12.46,5.15-.27-.81-1.09-1.53-1.73-2.17-.98-.97-1.93-1.95-2.92-2.91-1.96-1.57-4.33-2.85-7.34-.15-3.01,2.7-5.58,5.48-9.38,6.87-3.78,1.89-7.87,3.05-11.07,6.47-3.59,3.76-3.87,10.46.01,14.02C.23,45.25-.95,51.11.76,55.34c3.2,7.93,9.85,9.42,13.49,9.56,3.8.15,7.66-1.41,10.3-4.83,1.19-1.47,2.33-3.75,3.44-6.62.62,3.51,3.22,8.61,8.95,10.5,4.74,1.57,10.29-.26,13.5-3.74,5.63,6.84,13.39,7.15,20.8,1.35,1.92,1.69,2.36,3.38,5.75,3.42,3.39.23,5.05-2.52,7.19-5.06,1.68,1.53,2.84,4.65,8.3,4.65,4.66,0,6.43-2.23,8.88-4.86,6.64,8.06,17.23,6.59,23.95.69,1.81-1.36,3.38-2.53,4.74-2.53,2.58.06,4.24.51,5.42,1.37,2.3,2.28,4.44,5.14,8.08,5.01,4.91-.28,7.46-3.67,7.22-9.93ZM18.74,54.64c-7.38,9.15-22.46.81-14.27-9.73.72-.76,1.75-1.92,2.9-1.33,1.61.66,1.61,1.94.55,3.14-3.4,5.83,2.76,11.42,7.25,5.68,3.74-6.91,4.65-14.94,7.01-22.36,3.36-12.66,2.8-6.62-5.5-2.96-3.23,1.58-8.23,3.75-6.83,8.22.55,1.63,3.47,1.68,2.96,3.5-.87,3.07-3.96,3.07-6.11,1.66-3.48-2.27-3.75-7.67-.65-11.02,2.71-2.95,6.76-4.14,10.21-5.86,3.88-1.45,7.48-3.8,9.91-7.19,1.11-.86,2.99-.72,4.11.06,1.01.88.09,2.3-.18,3.32-2.04,6.25-6.77,29.17-11.36,34.87ZM16.01,37.47c.1-.86.84-1.66,2.51-2.65-.22.88-.43,1.75-.65,2.61-.12.52-.25,1.02-.37,1.53l-1.49-1.49ZM136.19,56.35c-1.22-1.42-3.13-4.77-9.9-4.86-5.62-.08-9.29,9.15-19.67,7.15-4-.77-7.39-3.23-8.07-8.56-2.24,4.26-7.4,9.46-12.19,7.81-3.96-1.37-4-8.06-4.64-7.36-2.74,2.96-4.67,5.85-6.6,7.62-.69.63-4.65.81-3.8-.97,2.41-3.31,9.03-10.77,9.04-11.36.1-3.79-2.08-8.58-2.9-8.96-.57-.28-1.26.35-2.1,2.61-2.94,6.08-5.01,13.49-10.88,17.24-12.46,7.94-17.34-4.97-17.34-4.97,0,0-5.21,8.5-12.94,6.07-8.21-2.57-2.3-21.56-1.29-22.68l-1.84-.19c-3.15-.28-3.56-3.56.73-3.9,1.08-.09,2.32-.08,2.32-.08,0,0,1.77-7.61,7.57-13.57,3.53-3.63,7.54-1.65,5.6,2.48-1.41,3-3.88,3.88-6.34,7.46-1.92,2.78-2.08,3.97-2.08,3.97,0,0,6.49.15,6.88,2.01.16.75-.15,1.69-.91,2.05-2.07.73-7.68.61-7.68.61,0,0-3.95,10.04-2.47,14.86.73,2.36,4.07,5.88,9.12-.11,1.77-2.09,3.18-4.48,3.82-7.08,2.48-10.11,14.97-16.72,19.88-8.16,2.43,4.25-.95,8.84-4.87,11.1-4.38,2.52-10.66,1.11-10.66,1.11-.78,7.95,6.37,9.77,12.99,4.59,3.84-3.39,5.97-8.37,7.8-13.05,1.12-2.22,1.94-4.98,4.11-6.41,3.87-2.18,5.91,1.91,6.76,5.08,1.18,6.09,4.26-.15,5.08-1.51,1.25-2.06,3.72-4.88,6.27-3.61,2.11,1.04-.39,2.77-2.58,5.06-2.2,2.29-6.56,7.83-6.56,7.83,0,0-.65,6.51,3.48,8.73,4.1,1.87,8.45-7.64,9.91-10.58,1.26-4.13,4.13-7.99,7.95-10.04,1.56-.84,3.27-1.37,5.1-1.5,3.45-.22,6.03,1.39,7.11,3.72.61,1.32.74,2.86.28,4.43-.93,3.16-4.52,4.74-6.52,2.39-2.32-2.73,3.03-6.17.03-6.95-2.09-.54-5.67.93-8.25,6.7-1.23,2.75-1.61,5.82-1.02,8.2.78,3.16,4.6,4.29,7.45,3.71,6.37-1.31,7.38-9.37,16.38-12.84,4.91-1.89,16.12.42,16.65,9,.51,8.32-5.99,8.27-8.21,5.71ZM45.7,42.24c-.11.35-.21.7-.3,1.05-.54,2.39-2.48,5.52-4.6,7.39.25-2.61,1.12-5.84,1.97-8.33,1.08-.01,2.06-.05,2.93-.11ZM115.66,48.92c-3.68,4.16-5.63,3.41-5.63,3.41,0,0-.69-1.7-.09-3.95.65-2.42,2.05-2.95,2.05-2.95,0,0,.11,3.08,3.67,3.49ZM63.7,38.27c-.35-2.96-4.1-2.62-5.98-1.46-4.96,3.05-5.27,7.2-5.27,7.2,0,0,12.18,2.1,11.25-5.74ZM63.7,38.27c-.35-2.96-4.1-2.62-5.98-1.46-4.96,3.05-5.27,7.2-5.27,7.2,0,0,12.18,2.1,11.25-5.74ZM63.7,38.27c-.35-2.96-4.1-2.62-5.98-1.46-4.96,3.05-5.27,7.2-5.27,7.2,0,0,12.18,2.1,11.25-5.74ZM63.7,38.27c-.35-2.96-4.1-2.62-5.98-1.46-4.96,3.05-5.27,7.2-5.27,7.2,0,0,12.18,2.1,11.25-5.74ZM63.7,38.27c-.35-2.96-4.1-2.62-5.98-1.46-4.96,3.05-5.27,7.2-5.27,7.2,0,0,12.18,2.1,11.25-5.74ZM63.7,38.27c-.35-2.96-4.1-2.62-5.98-1.46-4.96,3.05-5.27,7.2-5.27,7.2,0,0,12.18,2.1,11.25-5.74ZM63.7,38.27c-.35-2.96-4.1-2.62-5.98-1.46-4.96,3.05-5.27,7.2-5.27,7.2,0,0,12.18,2.1,11.25-5.74ZM63.7,38.27c-.35-2.96-4.1-2.62-5.98-1.46-4.96,3.05-5.27,7.2-5.27,7.2,0,0,12.18,2.1,11.25-5.74ZM63.7,38.27c-.35-2.96-4.1-2.62-5.98-1.46-4.96,3.05-5.27,7.2-5.27,7.2,0,0,12.18,2.1,11.25-5.74ZM63.7,38.27c-.35-2.96-4.1-2.62-5.98-1.46-4.96,3.05-5.27,7.2-5.27,7.2,0,0,12.18,2.1,11.25-5.74ZM63.7,38.27c-.35-2.96-4.1-2.62-5.98-1.46-4.96,3.05-5.27,7.2-5.27,7.2,0,0,12.18,2.1,11.25-5.74Z"/>
        <g>
          <g>
            <path class="cls-2" d="M119.52,1.33l-24.8,12.59,8.96,4.64,1.11.57,1.13.58.07-.51c.04-.1.13-.29.29-.53.8-1.21,3.34-3.7,10.55-2.9,8.25.92,9.42,4.73,9.58,5.62,0,.03,0,.06,0,.08l-.15,1.06,1.25-.26,1.26-.27,9-1.88L119.52,1.33ZM117.09,13.37c-8.74-.96-11.94,2.47-12.97,4.19l-7.01-3.63,22.19-11.27,16.32,16.8-6.85,1.44c-.32-1.65-2.08-6.47-11.68-7.53Z"/>
            <path class="cls-1" d="M119.75,0l-27.41,13.91,11.18,5.78,1.1.57,1.14.59.16-1.14.07-.51c.04-.1.13-.29.29-.53l-1.07-.55-1.09-.56-7.01-3.63,22.19-11.27,16.32,16.8-6.85,1.44-1.19.24-1.17.25s0,.06,0,.08l-.15,1.06-.17,1.14,1.26-.26,1.26-.26,11.31-2.37L119.75,0ZM114.18,24.99c-.16-.02-.33-.03-.49-.04l.99.51.83.43.63-.14h.02l1.11-.23c-1.01-.25-2.04-.43-3.09-.53Z"/>
          </g>
          <g>
            <path class="cls-2" d="M127.58,21.14c-.25-1.28-1.76-5.59-10.62-6.57-7.95-.88-10.83,2.08-11.75,3.55-.26.41-.37.7-.39.76v.03l-.03.22-.17,1.13-.03.24-.11.78-.95,6.62-.13.9c-.02.14.14.22.24.13,6.09-5.19,17.68-2.7,22.25,3.06.08.1.24.06.26-.07l.1-.74,1.11-7.77.14-.99.02-.15.11-.76v-.03s-.01-.16-.05-.34ZM126.1,23.67l-.84,5.91c-2.09-1.86-4.91-3.29-7.99-4.06-1.01-.25-2.04-.43-3.09-.53-.16-.02-.33-.03-.49-.04-.49-.04-.98-.06-1.45-.06-2.73,0-5.22.59-7.3,1.7l.82-5.74.16-1.14.07-.51c.04-.1.13-.29.29-.53.8-1.21,3.34-3.7,10.55-2.9,8.25.92,9.42,4.73,9.58,5.62,0,.03,0,.06,0,.08l-.15,1.06-.17,1.14Z"/>
            <path class="cls-1" d="M128.84,21.4c0-.09-.02-.26-.07-.5-.32-1.65-2.08-6.47-11.68-7.53-8.74-.96-11.94,2.47-12.97,4.19-.26.44-.38.76-.42.88l-.02.12-.16,1.13-1.31,8.94c-.01.09-.02.19-.01.28.01.09.02.17.05.26,0,0-.01.01,0,.02.06.23.18.44.37.61t.02.02c.07.08.16.14.25.19.49.27,1.1.21,1.53-.16,2.3-1.96,5.68-2.83,9.52-2.46,4.45.43,8.77,2.53,11,5.35.27.33.66.51,1.07.51.11,0,.23-.01.35-.04.06-.02.13-.04.19-.07h.01c.29-.13.52-.36.65-.64.07-.12.11-.26.13-.41l1.28-8.94.08-.57.08-.58.07-.46v-.14ZM126.42,21.47l-.15,1.06-.17,1.14-.84,5.91c-2.09-1.86-4.91-3.29-7.99-4.06-1.01-.25-2.04-.43-3.09-.53-.16-.02-.33-.03-.49-.04-.49-.04-.98-.06-1.45-.06-2.73,0-5.22.59-7.3,1.7l.82-5.74.16-1.14.07-.51c.04-.1.13-.29.29-.53.8-1.21,3.34-3.7,10.55-2.9,8.25.92,9.42,4.73,9.58,5.62,0,.03,0,.06,0,.08Z"/>
          </g>
        </g>
      </g>
    </g>
  </g>
</svg>