<?xml version="1.0" encoding="UTF-8"?>
<svg id="Layer_2" data-name="Layer 2" xmlns="http://www.w3.org/2000/svg" viewBox="0 0 433.41 433.68">
  <defs>
    <style>
      .cls-1 {
        fill: #000;
        stroke-width: 0px;
      }
    </style>
  </defs>
  <g id="Layer_1-2" data-name="Layer 1">
    <g>
      <g>
        <path class="cls-1" d="M90.8,83.27l-3.83-4.43,2.94-2.54-13.88-16.05-2.94,2.54-3.83-4.43,11.94-10.33,3.83,4.43-2.9,2.51,13.88,16.05,2.9-2.51,3.83,4.43-11.94,10.33Z"/>
        <path class="cls-1" d="M105.31,70.56l-18.03-27.55,5.62-3.68,17.54,7.34,2.97,1.56.15-.21-10.17-15.54,6.15-4.02,18.03,27.55-5.78,3.79-18.11-7.6-2.15-1.18-.11.19,10.04,15.34-6.15,4.02Z"/>
        <path class="cls-1" d="M143.29,49.27c-1.85.81-3.68,1.29-5.5,1.45s-3.58-.07-5.28-.67c-1.7-.6-3.26-1.61-4.69-3.02-1.43-1.42-2.66-3.3-3.69-5.64l-1.62-3.69c-1.01-2.28-1.54-4.43-1.6-6.43-.06-2,.27-3.84.98-5.52.71-1.68,1.73-3.15,3.04-4.41s2.85-2.28,4.61-3.05l.97-.43c1.67-.73,3.35-1.19,5.04-1.35,1.69-.17,3.32,0,4.87.53,1.56.52,3,1.43,4.32,2.72,1.32,1.29,2.46,3.02,3.41,5.19l-6.9,3.04c-.79-1.79-1.63-3.07-2.54-3.86-.91-.79-1.88-1.2-2.93-1.23-1.04-.03-2.17.22-3.37.75-.85.37-1.56.84-2.13,1.41-.57.57-.99,1.22-1.26,1.97-.27.75-.36,1.59-.27,2.53.08.94.38,2,.9,3.17l2.98,6.77c.67,1.52,1.46,2.67,2.36,3.45.9.78,1.88,1.2,2.92,1.28,1.05.08,2.15-.13,3.29-.63,1.35-.59,2.38-1.29,3.09-2.09.71-.8,1.08-1.79,1.1-2.98.02-1.18-.36-2.66-1.15-4.45l6.63-2.92c.89,2.02,1.37,3.94,1.44,5.77.07,1.82-.23,3.5-.88,5.03-.66,1.53-1.6,2.88-2.83,4.05-1.23,1.17-2.68,2.12-4.35,2.86l-.97.43Z"/>
        <path class="cls-1" d="M170.22,39.89c-2.42.62-4.63.7-6.62.25-2-.45-3.67-1.36-5.03-2.73-1.36-1.37-2.31-3.13-2.85-5.27l-5.52-21.63,7.81-1.99,5.52,21.63c.36,1.43,1.14,2.48,2.31,3.15,1.18.67,2.53.82,4.05.43,1.52-.39,2.62-1.16,3.3-2.3.68-1.15.84-2.44.48-3.86l-5.52-21.63,7.81-1.99,5.52,21.63c.55,2.14.5,4.15-.15,6.03-.64,1.88-1.79,3.51-3.43,4.89-1.65,1.38-3.68,2.38-6.1,2.99l-1.58.4Z"/>
        <path class="cls-1" d="M188.04,35.26l-2.91-32.8,16.5-1.46c1.66-.15,3.17.02,4.55.51,1.38.49,2.5,1.27,3.37,2.35.87,1.08,1.37,2.43,1.52,4.06.14,1.56-.02,2.9-.46,4.02-.45,1.12-1.06,2.03-1.85,2.74-.79.71-1.64,1.29-2.57,1.72l.02.19c.71.1,1.45.29,2.22.57.76.29,1.49.7,2.18,1.23.69.53,1.27,1.21,1.75,2.04.47.83.77,1.84.87,3.05.16,1.85-.13,3.53-.88,5.04-.75,1.51-1.81,2.73-3.17,3.65-1.36.92-2.94,1.47-4.72,1.62l-16.4,1.46ZM193.81,14.99l6.55-.58c.8-.07,1.44-.31,1.94-.73.49-.41.84-.93,1.04-1.56.2-.63.27-1.29.21-1.99-.11-1.21-.48-2.07-1.12-2.57-.64-.5-1.47-.71-2.49-.62l-6.79.6.66,7.46ZM195.02,28.67l6.84-.61c.77-.07,1.43-.31,1.98-.73.56-.42.97-.96,1.23-1.63.26-.67.36-1.4.29-2.19-.07-.83-.31-1.49-.71-1.98-.4-.5-.9-.86-1.5-1.1-.6-.24-1.25-.32-1.95-.26l-6.88.61.7,7.89Z"/>
        <path class="cls-1" d="M224.41,33.56l.79-12.6L215.35,0l9.01.56,5.58,13.05h.19s7.26-12.23,7.26-12.23l8.19.51-12.33,19.57-.79,12.6-8.05-.5Z"/>
        <path class="cls-1" d="M250.88,36.56l5.49-26.07-8.88-1.87,1.3-6.15,25.64,5.4-1.3,6.15-8.88-1.87-5.49,26.07-7.89-1.66Z"/>
        <path class="cls-1" d="M269.53,40.8l11.31-30.92,22.09,8.08-2.88,5.49-13.88-5.08-2.41,6.58,12.98,4.75-2.06,5.63-12.98-4.75-2.62,7.17,13.98,5.11-1.3,6.07-22.22-8.13Z"/>
        <path class="cls-1" d="M294.1,50.44l3.21-6.55,6.72,3.3-3.21,6.55-6.72-3.3Z"/>
        <path class="cls-1" d="M304.87,55.39l17.82-27.69,11.46,7.38c1.64,1.06,3,2.3,4.08,3.74s1.83,3.01,2.26,4.74c.43,1.72.47,3.52.13,5.39-.35,1.87-1.14,3.77-2.39,5.71l-1.97,3.07c-1.23,1.91-2.65,3.45-4.25,4.6-1.6,1.16-3.31,1.94-5.11,2.36-1.81.42-3.61.46-5.4.15-1.79-.32-3.51-1-5.15-2.06l-11.46-7.38ZM314.97,54.59l4.12,2.65c.97.62,1.99.96,3.06,1,1.07.04,2.13-.24,3.17-.84,1.04-.61,1.99-1.58,2.86-2.93l3.61-5.61c.85-1.32,1.32-2.55,1.4-3.69.09-1.14-.13-2.17-.65-3.07-.52-.91-1.27-1.67-2.23-2.29l-4.12-2.65-11.22,17.44Z"/>
        <path class="cls-1" d="M328.57,70.8l1.63-1.83,27.21-8.38-10.19-9.05,4.08-4.59,18.7,16.61-1.63,1.83-27.07,8.44,11.23,9.98-4.11,4.63-19.85-17.63Z"/>
        <path class="cls-1" d="M400.04,204.27l5.85-.15.1,3.89,21.21-.55-.1-3.89,5.85-.15.41,15.79-5.85.15-.1-3.84-21.21.55.1,3.84-5.85.15-.41-15.79Z"/>
        <path class="cls-1" d="M400.67,223.58l32.74,3.51-.72,6.68-16.79,8.92-3.08,1.31.07.25,18.47,1.98-.78,7.3-32.74-3.51.74-6.87,17.35-9.2,2.27-.92-.07-.2-18.23-1.95.78-7.3Z"/>
        <path class="cls-1" d="M393.07,266.46c.54-1.94,1.33-3.67,2.36-5.17,1.03-1.51,2.32-2.73,3.86-3.66,1.54-.93,3.31-1.5,5.31-1.71,2-.21,4.23.03,6.7.72l3.88,1.08c2.4.67,4.4,1.62,5.99,2.84,1.59,1.22,2.8,2.64,3.65,4.26.85,1.61,1.34,3.33,1.48,5.15.14,1.82-.05,3.65-.56,5.5l-.28,1.02c-.49,1.76-1.21,3.34-2.15,4.76-.94,1.41-2.11,2.56-3.5,3.43-1.39.87-3,1.41-4.84,1.62-1.83.2-3.89-.01-6.17-.65l2.02-7.26c1.88.52,3.41.69,4.6.48,1.19-.2,2.12-.7,2.81-1.48.69-.79,1.2-1.82,1.56-3.08.25-.89.34-1.74.26-2.54-.08-.8-.32-1.54-.73-2.22-.41-.68-1-1.29-1.79-1.82-.78-.53-1.79-.97-3.02-1.32l-7.12-1.99c-1.6-.45-2.99-.57-4.16-.36-1.17.2-2.12.69-2.85,1.45-.73.76-1.26,1.74-1.59,2.94-.4,1.42-.51,2.66-.34,3.72.17,1.06.7,1.97,1.6,2.74.9.77,2.29,1.41,4.17,1.94l-1.95,6.98c-2.13-.59-3.92-1.44-5.37-2.54-1.45-1.1-2.56-2.39-3.33-3.87-.77-1.48-1.21-3.06-1.34-4.76-.12-1.7.06-3.42.55-5.18l.28-1.02Z"/>
        <path class="cls-1" d="M383.25,293.23c1.06-2.26,2.39-4.02,4-5.28,1.61-1.26,3.38-1.98,5.3-2.16,1.92-.18,3.88.2,5.88,1.13l20.23,9.44-3.41,7.31-20.23-9.44c-1.33-.62-2.64-.69-3.9-.21-1.27.48-2.23,1.44-2.9,2.86-.66,1.42-.77,2.76-.31,4.01.46,1.25,1.35,2.19,2.69,2.82l20.23,9.44-3.41,7.31-20.23-9.44c-2-.93-3.53-2.25-4.57-3.94-1.05-1.69-1.58-3.61-1.6-5.75-.02-2.15.49-4.35,1.55-6.61l.69-1.48Z"/>
        <path class="cls-1" d="M375.53,309.95l27.22,18.53-9.32,13.69c-.94,1.38-2.03,2.44-3.28,3.2-1.25.75-2.57,1.13-3.95,1.11-1.38-.01-2.75-.48-4.1-1.4-1.3-.88-2.23-1.85-2.81-2.9-.58-1.05-.9-2.11-.95-3.17-.05-1.06.05-2.09.3-3.08l-.16-.11c-.53.49-1.15.94-1.85,1.35-.71.41-1.48.71-2.33.91-.85.2-1.74.22-2.68.06-.94-.16-1.91-.58-2.92-1.26-1.53-1.04-2.65-2.34-3.34-3.87-.69-1.54-.97-3.13-.82-4.77.15-1.64.73-3.2,1.74-4.68l9.27-13.61ZM376.21,319.53l-3.86,5.67c-.43.64-.66,1.3-.69,2-.03.7.13,1.36.48,1.98.35.62.85,1.16,1.52,1.61.69.47,1.35.71,1.98.71.63,0,1.23-.15,1.79-.46.56-.31,1.04-.76,1.44-1.34l3.89-5.71-6.55-4.46ZM387.56,327.26l-3.7,5.44c-.45.66-.67,1.31-.66,1.96,0,.64.19,1.24.55,1.8.36.55.83,1.03,1.41,1.43,1,.68,1.91.94,2.7.77.8-.17,1.48-.69,2.06-1.53l3.84-5.63-6.19-4.21Z"/>
        <path class="cls-1" d="M361.78,330.71l15.94,31.1-6.68,7.09-32-14.05,5.73-6.08,6.33,2.73,8.49-9.02-3.14-6.12,5.33-5.66ZM362.43,347.81l-5.82,6.19,11.85,5.55.16-.17-6.19-11.56Z"/>
        <path class="cls-1" d="M333.33,358.82l16.47,20.94,7.13-5.61,3.89,4.94-20.6,16.21-3.89-4.94,7.13-5.61-16.47-20.94,6.34-4.99Z"/>
        <path class="cls-1" d="M307.21,376.18c1.67-.94,3.41-1.53,5.22-1.78,1.81-.25,3.58-.12,5.33.36,1.74.49,3.38,1.36,4.92,2.63s2.88,2.92,4.02,4.95l1.95,3.47c1.15,2.04,1.85,4.04,2.11,6,.26,1.96.15,3.82-.34,5.56-.49,1.74-1.3,3.32-2.43,4.73-1.13,1.41-2.52,2.58-4.17,3.5l-1.76.99c-1.67.94-3.41,1.53-5.2,1.77-1.79.24-3.56.11-5.31-.38-1.74-.49-3.38-1.36-4.91-2.61-1.53-1.25-2.87-2.89-4.01-4.93l-1.95-3.47c-1.15-2.04-1.86-4.04-2.14-6.01-.28-1.97-.18-3.83.31-5.57.49-1.74,1.3-3.32,2.43-4.73,1.13-1.41,2.54-2.58,4.21-3.53l1.72-.96ZM309.34,381.92c-.81.45-1.48,1-2.01,1.62-.53.63-.9,1.34-1.11,2.14-.21.8-.24,1.66-.09,2.58.15.92.53,1.93,1.15,3.02l3.62,6.44c.61,1.09,1.28,1.94,2,2.57.72.62,1.47,1.05,2.27,1.29.79.23,1.59.28,2.39.14.8-.14,1.59-.43,2.38-.87.78-.44,1.44-.98,1.98-1.61.54-.64.93-1.35,1.16-2.14.23-.79.27-1.66.11-2.6-.16-.94-.55-1.95-1.16-3.04l-3.6-6.4c-.61-1.09-1.28-1.94-2-2.57-.72-.62-1.48-1.05-2.29-1.27-.81-.23-1.61-.28-2.42-.15s-1.61.41-2.39.85Z"/>
        <path class="cls-1" d="M268.72,392.99c1.15-.41,2.19-.59,3.15-.54.95.05,1.81.41,2.58,1.09.77.67,1.43,1.77,1.97,3.27.31.87.69,1.66,1.13,2.37s.96,1.29,1.54,1.74c.59.45,1.23.74,1.92.87.69.13,1.43.05,2.21-.23l4.56-1.64-4.25-11.83,7.45-2.68,11.14,30.99-16.17,5.81c-1.48.53-2.96.72-4.47.56-1.5-.16-2.86-.66-4.09-1.51-1.22-.85-2.13-2.09-2.71-3.72-.48-1.33-.66-2.63-.54-3.91.12-1.28.45-2.46,1-3.52.55-1.07,1.25-1.97,2.11-2.72l-.08-.23c-.71.02-1.43-.07-2.15-.25-.73-.18-1.43-.5-2.1-.95-.67-.46-1.3-1.04-1.88-1.75-.58-.71-1.05-1.56-1.4-2.56-.26-.72-.53-1.39-.82-2-.29-.61-.6-1.14-.92-1.58-.33-.44-.71-.77-1.15-.99-.44-.22-.92-.32-1.46-.29l-.57-1.58c.52-.46,1.13-.87,1.85-1.25.72-.38,1.43-.69,2.16-.95ZM289.81,405.56l-6.14,2.21c-.63.23-1.13.64-1.5,1.23-.37.59-.58,1.26-.65,2.02-.07.76.04,1.52.32,2.31.4,1.11,1.02,1.85,1.84,2.22.83.37,1.72.37,2.69.03l6.23-2.24-2.79-7.77Z"/>
        <path class="cls-1" d="M253.77,397.21l4.4,32.63-16.41,2.21c-1.65.22-3.17.12-4.57-.3-1.4-.43-2.55-1.16-3.47-2.2-.92-1.04-1.48-2.37-1.7-3.98-.21-1.55-.12-2.9.28-4.03.4-1.14.97-2.08,1.73-2.82.75-.75,1.58-1.36,2.49-1.84l-.03-.19c-.72-.06-1.47-.22-2.24-.47-.78-.25-1.52-.63-2.23-1.13-.71-.5-1.33-1.15-1.84-1.96-.51-.8-.85-1.81-1.01-3.01-.25-1.84-.03-3.53.65-5.08.68-1.54,1.68-2.81,3-3.79,1.32-.99,2.87-1.6,4.64-1.84l16.32-2.2ZM247.1,404.12l-6.8.92c-.76.1-1.41.38-1.95.82-.54.44-.92,1-1.15,1.68-.23.68-.29,1.41-.19,2.21.11.82.38,1.47.8,1.95.42.48.93.82,1.54,1.03.61.21,1.26.27,1.96.17l6.85-.92-1.06-7.85ZM248.93,417.73l-6.52.88c-.79.11-1.43.38-1.9.81-.47.44-.8.97-.97,1.61-.17.64-.21,1.3-.12,2,.16,1.21.58,2.05,1.24,2.52.66.48,1.5.65,2.51.51l6.75-.91-1-7.42Z"/>
        <path class="cls-1" d="M217.5,400.56l-.22,12.62,10.78,20.5-9.02-.16-6.16-12.78h-.19s-6.7,12.55-6.7,12.55l-8.21-.14,11.44-20.11.22-12.62,8.06.14Z"/>
        <path class="cls-1" d="M189.22,398.64l-1.12,5.75-3.82-.74-4.06,20.82,3.82.74-1.12,5.75-15.5-3.02,1.12-5.75,3.77.73,4.06-20.82-3.77-.73,1.12-5.75,15.5,3.02Z"/>
        <path class="cls-1" d="M163.84,392.82l-8.23,25.34,8.63,2.8-1.94,5.98-24.93-8.1,1.94-5.98,8.63,2.8,8.23-25.34,7.67,2.49Z"/>
        <path class="cls-1" d="M145.75,386.63l-14.52,29.55-21.11-10.37,3.44-5.15,13.27,6.52,3.09-6.29-12.41-6.1,2.65-5.38,12.41,6.1,3.37-6.85-13.35-6.56,1.93-5.9,21.24,10.44Z"/>
        <path class="cls-1" d="M125.21,376.89l-18.83,8.06-.85,18.36-7.64-5.32.74-11.48-.16-.11-10.51,4.67-7.05-4.91,16.99-7.18.96-20.45,7.68,5.35-.9,13.47.16.11,12.32-5.52,7.09,4.94Z"/>
        <path class="cls-1" d="M89.62,348.67c1.45,1.4,2.59,2.91,3.43,4.54.83,1.63,1.29,3.34,1.38,5.13.09,1.8-.25,3.63-1.02,5.48-.77,1.86-2.04,3.71-3.82,5.55l-2.8,2.9c-1.73,1.8-3.51,3.1-5.34,3.92-1.83.81-3.66,1.21-5.48,1.19-1.82-.02-3.57-.4-5.23-1.14-1.67-.74-3.19-1.77-4.57-3.11l-.76-.73c-1.31-1.27-2.37-2.65-3.17-4.15-.8-1.5-1.25-3.07-1.36-4.71-.11-1.64.18-3.31.88-5.02.69-1.71,1.86-3.42,3.5-5.12l5.43,5.23c-1.35,1.4-2.22,2.68-2.61,3.82-.39,1.14-.39,2.2-.03,3.17.37.98,1.03,1.92,1.97,2.83.67.64,1.37,1.12,2.11,1.44.74.31,1.51.45,2.3.42.79-.04,1.61-.27,2.45-.71.84-.43,1.71-1.11,2.59-2.03l5.13-5.32c1.15-1.2,1.92-2.36,2.29-3.49.38-1.13.4-2.19.08-3.19-.32-1-.94-1.93-1.83-2.8-1.06-1.02-2.1-1.71-3.11-2.06-1.01-.35-2.07-.32-3.17.11-1.1.43-2.33,1.34-3.68,2.75l-5.22-5.03c1.53-1.59,3.13-2.76,4.79-3.52,1.66-.75,3.32-1.12,4.99-1.09,1.66.03,3.27.39,4.82,1.08,1.55.7,2.98,1.68,4.3,2.94l.76.73Z"/>
        <path class="cls-1" d="M65.27,319.77c1.07,1.59,1.77,3.25,2.12,4.97s.32,3.43-.08,5.14c-.39,1.71-1.18,3.36-2.34,4.95-1.17,1.59-2.72,3.04-4.66,4.34l-3.35,2.25c-1.94,1.3-3.88,2.18-5.81,2.62-1.93.45-3.8.49-5.59.11-1.79-.38-3.46-1.11-5-2.2-1.54-1.09-2.9-2.51-4.07-4.26l-.59-.88c-1-1.49-1.71-3.04-2.13-4.64-.42-1.6-.53-3.19-.33-4.75.2-1.56.75-3.05,1.64-4.45.89-1.4,2.13-2.64,3.72-3.71l4.14,6.18c-1.22.82-2.05,1.71-2.5,2.66-.44.95-.58,1.93-.4,2.93.17,1,.6,2.02,1.3,3.06.52.77,1.1,1.39,1.76,1.85.66.46,1.39.76,2.19.9.8.14,1.66.08,2.58-.17.91-.25,1.89-.72,2.93-1.41l6.14-4.12c1.04-.69,1.84-1.42,2.42-2.17.58-.75.95-1.52,1.13-2.32.18-.79.18-1.58,0-2.37-.18-.78-.53-1.56-1.04-2.33-.52-.77-1.08-1.42-1.68-1.94-.6-.52-1.25-.89-1.95-1.09-.7-.21-1.45-.23-2.25-.08-.8.15-1.66.53-2.56,1.14l-.96.64,3.96,5.9-4.46,2.99-8.07-12.04,9.49-6.36c1.28-.86,2.3-1.58,3.08-2.18.78-.6,1.51-1.18,2.2-1.76l2.46,3.67-2.47,3.04c1.64.09,3.27.66,4.87,1.7,1.6,1.04,2.92,2.32,3.93,3.84l.24.36Z"/>
        <path class="cls-1" d="M45.49,282.86c.5,1.11.77,2.14.8,3.09.03.95-.26,1.84-.87,2.66-.61.82-1.64,1.56-3.1,2.22-.84.38-1.6.82-2.27,1.32-.67.5-1.21,1.06-1.61,1.68-.4.62-.64,1.28-.71,1.98-.07.7.07,1.43.41,2.19l2,4.42,11.45-5.19,3.27,7.21-29.99,13.6-7.1-15.65c-.65-1.43-.95-2.9-.92-4.41.04-1.51.43-2.91,1.18-4.2.75-1.29,1.91-2.29,3.49-3,1.28-.58,2.57-.87,3.86-.85,1.29.01,2.49.25,3.59.72,1.11.46,2.07,1.09,2.88,1.88l.22-.1c-.07-.71-.05-1.43.07-2.17.12-.74.38-1.46.78-2.17.4-.71.93-1.38,1.59-2.01.66-.63,1.47-1.17,2.43-1.6.7-.32,1.34-.64,1.93-.98.59-.34,1.09-.69,1.5-1.05.42-.36.71-.77.9-1.22.18-.45.24-.94.17-1.48l1.53-.69c.5.48.96,1.06,1.39,1.74.43.68.81,1.37,1.12,2.07ZM34.66,304.9l-2.7-5.95c-.28-.61-.73-1.08-1.34-1.39-.62-.32-1.31-.48-2.07-.49-.76,0-1.52.16-2.27.5-1.08.49-1.77,1.16-2.06,2.02-.3.86-.23,1.75.19,2.68l2.74,6.03,7.52-3.41Z"/>
        <path class="cls-1" d="M40,264.73c.49,1.86.63,3.69.41,5.5-.22,1.81-.78,3.5-1.69,5.06-.91,1.56-2.17,2.93-3.78,4.1-1.61,1.17-3.55,2.05-5.8,2.65l-3.85,1.02c-2.26.6-4.37.77-6.34.53-1.97-.24-3.73-.82-5.3-1.73-1.56-.91-2.89-2.09-3.96-3.55s-1.86-3.09-2.34-4.92l-.51-1.95c-.49-1.86-.62-3.68-.4-5.48.22-1.8.79-3.48,1.7-5.04.91-1.56,2.17-2.93,3.76-4.09,1.6-1.17,3.52-2.05,5.78-2.64l3.85-1.02c2.26-.6,4.38-.78,6.36-.56,1.98.22,3.75.79,5.31,1.7,1.56.91,2.89,2.09,3.96,3.55s1.86,3.11,2.35,4.96l.5,1.9ZM33.91,265.35c-.24-.9-.59-1.68-1.07-2.35-.47-.67-1.07-1.21-1.79-1.61-.72-.41-1.54-.65-2.48-.74-.93-.08-2,.03-3.21.35l-7.15,1.89c-1.21.32-2.2.75-2.99,1.28-.78.54-1.39,1.16-1.82,1.87-.43.71-.67,1.47-.74,2.28-.07.81.01,1.65.24,2.52.23.87.58,1.64,1.06,2.33.48.69,1.07,1.24,1.78,1.67.71.43,1.54.68,2.48.76.95.08,2.03-.04,3.23-.36l7.1-1.87c1.21-.32,2.2-.75,2.99-1.28.79-.54,1.39-1.17,1.81-1.89.42-.72.67-1.49.76-2.31.08-.82,0-1.66-.22-2.52Z"/>
        <path class="cls-1" d="M34.57,234.87c.23,2.49-.04,4.68-.8,6.58-.76,1.9-1.92,3.41-3.49,4.53-1.57,1.12-3.45,1.78-5.65,1.98l-22.23,2.01-.73-8.03,22.23-2.01c1.47-.13,2.63-.73,3.48-1.78.85-1.06,1.21-2.37,1.07-3.93-.14-1.56-.72-2.77-1.75-3.62-1.02-.85-2.27-1.22-3.74-1.08l-22.23,2.01L0,223.49l22.23-2.01c2.2-.2,4.18.17,5.93,1.1,1.76.93,3.18,2.32,4.28,4.17,1.1,1.85,1.76,4.01,1.98,6.5l.15,1.63Z"/>
        <path class="cls-1" d="M32.86,216.5l-32.86-2.19,1.09-16.38c.12-1.79.65-3.4,1.6-4.82.95-1.43,2.16-2.53,3.66-3.29s3.14-1.09,4.92-.97l.81.05c1.79.12,3.41.68,4.87,1.67,1.46,1,2.59,2.27,3.4,3.81s1.16,3.23,1.04,5.05l-.55,8.24,12.55.83-.53,8ZM14.85,207.27l.41-6.13c.05-.77-.08-1.45-.39-2.05-.31-.6-.76-1.08-1.35-1.46-.58-.38-1.29-.59-2.12-.65-1.12-.07-2.11.21-2.97.86-.86.65-1.33,1.6-1.42,2.84l-.4,6.03,8.24.55Z"/>
      </g>
      <path class="cls-1" d="M39.71,103.3c-11.39,0-20.62,9.23-20.62,20.62s9.23,20.62,20.62,20.62,20.62-9.23,20.62-20.62-9.23-20.62-20.62-20.62ZM32.41,115.56c1.25,0,2.26,1.01,2.26,2.26s-1.01,2.26-2.26,2.26-2.26-1.01-2.26-2.26,1.01-2.26,2.26-2.26ZM48.28,126.46c0,5.2-4.03,9.44-8.97,9.44s-8.97-4.23-8.97-9.44v-4.17h4.15v4.17c0,2.92,2.17,5.29,4.83,5.29s4.83-2.37,4.83-5.29v-4.15h4.15v4.15ZM50.55,119.89h-8.66v-4.12h8.66v4.12Z"/>
      <path class="cls-1" d="M396.16,103.3c-11.39,0-20.62,9.23-20.62,20.62s9.23,20.62,20.62,20.62,20.62-9.23,20.62-20.62-9.23-20.62-20.62-20.62ZM388.85,115.56c1.25,0,2.26,1.01,2.26,2.26s-1.01,2.26-2.26,2.26-2.26-1.01-2.26-2.26,1.01-2.26,2.26-2.26ZM404.72,126.46c0,5.2-4.03,9.44-8.97,9.44s-8.97-4.23-8.97-9.44v-4.17h4.15v4.17c0,2.92,2.17,5.29,4.83,5.29s4.83-2.37,4.83-5.29v-4.15h4.15v4.15ZM406.99,119.89h-8.66v-4.12h8.66v4.12Z"/>
    </g>
  </g>
</svg>