<?xml version="1.0" encoding="UTF-8"?>
<svg id="Layer_2" data-name="Layer 2" xmlns="http://www.w3.org/2000/svg" viewBox="0 0 269.52 269.52">
  <defs>
    <style>
      .cls-1 {
        fill: #3f3f3f;
      }

      .cls-1, .cls-2 {
        stroke-width: 0px;
      }

      .cls-2 {
        fill: #fff;
      }
    </style>
  </defs>
  <g id="Layer_3" data-name="Layer 3">
    <g>
      <path class="cls-1" d="M134.76,269.52C60.45,269.52,0,209.07,0,134.76S60.45,0,134.76,0s134.76,60.45,134.76,134.76-60.45,134.76-134.76,134.76ZM134.76.89C60.94.89.89,60.95.89,134.76s60.05,133.87,133.87,133.87,133.87-60.05,133.87-133.87S208.57.89,134.76.89Z"/>
      <path class="cls-1" d="M134.34,229.66c-52.43,0-95.09-42.66-95.09-95.09s42.66-95.09,95.09-95.09,95.09,42.66,95.09,95.09-42.66,95.09-95.09,95.09ZM134.34,40.12c-52.08,0-94.46,42.37-94.46,94.46s42.37,94.46,94.46,94.46,94.46-42.37,94.46-94.46-42.37-94.46-94.46-94.46Z"/>
      <g>
        <path class="cls-1" d="M38.97,87.95l-14.89-7.79,2.2-4.21,14.89,7.79-2.2,4.21Z"/>
        <path class="cls-1" d="M46.19,75.53l-10.64-7.53-2.98,4.21-3.08-2.18,8.69-12.28,3.08,2.18-2.97,4.19,10.64,7.53-2.74,3.88Z"/>
        <path class="cls-1" d="M55.42,58.38l6.21-6.21,2.59,2.6-9.54,9.53-11.87-11.88,9.32-9.31,2.6,2.6-5.99,5.99,6.68,6.69ZM50.5,53.93l5.52-5.51,2.51,2.51-5.52,5.51-2.51-2.51Z"/>
        <path class="cls-1" d="M66.49,52.68l.26-12.57,1.9,2.8-11.48-4.21,4.41-3.04,7.41,2.79-1.86,1.32-.05-7.9,4.23-2.92-.25,12.07-1.91-2.77,12.01,4.31-4.5,3.11-7.66-3.03,1.8-1.24.17,8.19-4.46,3.08Z"/>
        <path class="cls-1" d="M91.86,37.99c-1.21.54-2.42.85-3.62.92-1.2.07-2.34-.08-3.41-.46-1.07-.38-2.04-.96-2.9-1.74-.86-.78-1.55-1.76-2.07-2.93-.52-1.17-.79-2.33-.8-3.49-.01-1.16.2-2.27.63-3.32.43-1.05,1.08-2,1.93-2.85.86-.85,1.89-1.54,3.1-2.08,1.42-.63,2.79-.95,4.13-.96,1.34,0,2.59.3,3.75.9l-1.64,3.73c-.76-.36-1.5-.57-2.23-.61-.73-.04-1.46.1-2.19.43-.63.28-1.16.64-1.59,1.08-.43.44-.75.94-.95,1.49-.2.55-.29,1.15-.25,1.78.03.63.19,1.28.49,1.94s.67,1.21,1.12,1.65c.45.44.95.78,1.5,1,.55.22,1.13.32,1.74.29.62-.03,1.24-.19,1.87-.47.73-.33,1.32-.78,1.78-1.35s.8-1.26,1.03-2.07l3.88,1.26c-.33,1.25-.94,2.38-1.84,3.38-.89,1-2.05,1.82-3.46,2.46Z"/>
        <path class="cls-1" d="M110.14,31.17l5.1-17.64,4.64-.63,9.62,15.65-4.9.66-7.7-13.56,1.86-.25-3.82,15.12-4.8.65ZM113.72,27.4l.74-3.64,8.13-1.1,1.68,3.31-10.56,1.43Z"/>
        <path class="cls-1" d="M141.21,29.48c-1.33-.08-2.54-.36-3.64-.84-1.1-.49-2.04-1.14-2.82-1.97-.78-.83-1.37-1.79-1.77-2.88-.4-1.09-.57-2.27-.5-3.55.07-1.28.37-2.44.89-3.47.52-1.04,1.22-1.92,2.08-2.66.87-.74,1.88-1.28,3.03-1.64,1.15-.36,2.39-.5,3.71-.43,1.55.09,2.92.44,4.11,1.05,1.19.61,2.17,1.45,2.92,2.52l-3.17,2.56c-.51-.67-1.07-1.19-1.7-1.56-.63-.37-1.34-.58-2.14-.63-.69-.04-1.32.04-1.91.23-.59.19-1.1.49-1.53.89-.43.4-.78.89-1.04,1.47-.26.58-.42,1.23-.46,1.94-.04.72.04,1.38.24,1.99.2.6.49,1.13.87,1.58s.86.8,1.42,1.05c.56.26,1.19.4,1.88.44.8.04,1.53-.08,2.2-.38.67-.3,1.29-.75,1.87-1.36l2.86,2.9c-.87.96-1.93,1.68-3.19,2.16-1.25.48-2.65.68-4.2.59Z"/>
        <path class="cls-1" d="M150.47,29.73l11.31-14.47,4.54,1.15,3.09,18.11-4.79-1.21-2.08-15.46,1.81.46-9.18,12.61-4.7-1.19ZM155.21,27.56l2.05-3.1,7.96,2.01.33,3.7-10.33-2.61Z"/>
        <path class="cls-1" d="M172.61,35.86l7.33-15.12,7.15,3.46c1.67.81,2.99,1.83,3.96,3.06.97,1.23,1.54,2.58,1.7,4.05.17,1.47-.12,2.98-.88,4.54-.75,1.54-1.75,2.7-3.01,3.49-1.26.79-2.67,1.18-4.24,1.19-1.57,0-3.19-.4-4.86-1.21l-7.15-3.46ZM178.54,34.52l2.7,1.31c.86.42,1.69.62,2.49.61.8-.01,1.53-.25,2.19-.7.66-.45,1.2-1.11,1.62-1.97.43-.88.61-1.71.55-2.51-.06-.79-.33-1.51-.82-2.14-.48-.63-1.16-1.16-2.02-1.58l-2.7-1.31-4.02,8.29Z"/>
        <path class="cls-1" d="M198.11,45.97l7.05,5.25-2.19,2.95-10.82-8.05,10.03-13.48,10.57,7.87-2.19,2.95-6.8-5.06-5.65,7.58ZM201.79,40.46l6.26,4.66-2.12,2.85-6.26-4.66,2.12-2.85Z"/>
        <path class="cls-1" d="M206.68,57.19l12.56-11.16,2.6,2.92-3.91,12.79-1.37-1.54,13.03-2.53,2.6,2.92-12.52,11.2-2.9-3.27,7.56-6.78.49.56-9.71,1.86-1.4-1.58,2.89-9.54.61.68-7.59,6.75-2.92-3.28Z"/>
        <path class="cls-1" d="M224.68,80.09l6.17-3.53-1.93,2.38,7.17-12.75,2.49,4.35-5.21,9.22-1.44-2.52,10.6.21,2.29,4-14.61-.27,3-.5-6.17,3.53-2.36-4.13Z"/>
        <path class="cls-1" d="M239.97,132.04l16.79.44-.12,4.75-13.03-.34-.21,8.01-3.77-.1.33-12.76Z"/>
        <path class="cls-1" d="M241.8,154.36l-1.7,8.62-3.6-.71,2.6-13.23,16.48,3.25-2.55,12.93-3.6-.71,1.64-8.31-9.28-1.83ZM248.36,155.31l-1.51,7.65-3.49-.69,1.51-7.65,3.49.69Z"/>
        <path class="cls-1" d="M235.92,165.09l12.83,13.14-1.74,4.34-18.36.64,1.84-4.59h15.59s-.7,1.74-.7,1.74l-11.26-10.78,1.81-4.5ZM237.44,170.07l2.8,2.44-3.06,7.62-3.71-.17,3.97-9.89Z"/>
        <path class="cls-1" d="M221.12,195.02l7.41-.2-2.74,4.26-7.42.22,2.75-4.28ZM226.74,186.28l14.13,9.09-4.16,6.46c-.83,1.29-1.76,2.27-2.78,2.94-1.02.67-2.09,1-3.2,1.01s-2.21-.34-3.29-1.03c-1.06-.68-1.82-1.53-2.26-2.54-.44-1.01-.57-2.11-.38-3.31s.7-2.45,1.53-3.74l2.73-4.24.53,2.85-5.43-3.49,2.57-4ZM229.18,193.5l2.98-.59-2.57,4c-.54.83-.76,1.57-.66,2.22.1.64.47,1.17,1.12,1.59.66.42,1.3.55,1.93.37.63-.18,1.21-.68,1.75-1.52l2.57-4,.69,2.96-7.81-5.03Z"/>
        <path class="cls-1" d="M215.55,202.77l12.08,11.68-2.72,2.81-14.48-1.12,1.28-1.33,8.04,7.78-3.24,3.35-12.08-11.68,2.72-2.81,14.48,1.12-1.28,1.33-8.04-7.78,3.24-3.35Z"/>
        <path class="cls-1" d="M199.76,217.83l10.14,13.4-3.79,2.87-10.13-13.4,3.79-2.87Z"/>
        <path class="cls-1" d="M191.25,224.24l7.96,14.79-3.45,1.85-13.46-5.46,1.63-.87,5.3,9.85-4.1,2.21-7.96-14.79,3.44-1.85,13.46,5.46-1.63.88-5.3-9.85,4.1-2.21Z"/>
        <path class="cls-1" d="M163.91,236.01c1.27-.39,2.51-.54,3.72-.47,1.21.07,2.32.37,3.34.88,1.02.51,1.9,1.21,2.65,2.09.75.88,1.32,1.94,1.69,3.16.37,1.22.49,2.41.36,3.57-.13,1.15-.48,2.22-1.05,3.22-.57.99-1.34,1.86-2.31,2.6-.97.74-2.11,1.3-3.41,1.7-1.52.46-2.95.62-4.3.48-1.35-.14-2.55-.57-3.62-1.28l2.1-3.5c.73.43,1.46.7,2.19.8.73.11,1.48.04,2.26-.2.69-.21,1.28-.51,1.79-.89.5-.39.89-.84,1.16-1.37.27-.53.44-1.1.49-1.73.05-.63-.03-1.29-.24-2-.21-.67-.5-1.26-.9-1.76-.39-.5-.85-.89-1.37-1.17-.52-.29-1.09-.45-1.72-.5-.63-.05-1.28.02-1.95.23-.67.21-1.3.51-1.87.93-.58.42-1.11.99-1.61,1.73l-3.52-2.42c.72-.94,1.63-1.77,2.73-2.49,1.1-.72,2.24-1.26,3.4-1.61ZM161.98,239.48l1.84,6.06-4.02,1.22-2.02-6.66,4.2-.62Z"/>
        <path class="cls-1" d="M137.45,244.32l-8.78.15-.06-3.67,13.49-.23.29,16.8-13.17.23-.06-3.67,8.47-.15-.16-9.46ZM137.9,250.94l-7.8.14-.06-3.55,7.8-.14.06,3.55Z"/>
        <path class="cls-1" d="M125.52,240.74l-8.9,8.88.57-3.33,5.35,10.99-5.28-.87-3.4-7.15,2.25.35-5.44,5.72-5.07-.83,8.55-8.52-.54,3.32-5.66-11.44,5.4.89,3.42,7.49-2.15-.35,5.56-6.02,5.35.88Z"/>
        <path class="cls-1" d="M97.04,233.71c1.25.45,2.33,1.07,3.25,1.85.92.78,1.63,1.68,2.14,2.7.51,1.02.8,2.1.88,3.26.07,1.16-.11,2.34-.54,3.54s-1.05,2.23-1.85,3.07c-.8.84-1.72,1.49-2.76,1.95-1.04.46-2.16.69-3.37.71-1.2.01-2.43-.2-3.68-.65-1.46-.53-2.67-1.25-3.64-2.18-.97-.93-1.66-2.01-2.08-3.25l3.77-1.54c.29.79.69,1.45,1.18,1.98.49.54,1.12.94,1.87,1.21.65.23,1.28.34,1.9.33.62-.02,1.19-.15,1.72-.41.53-.26,1-.63,1.42-1.11.42-.48.75-1.06,1-1.73.25-.68.36-1.33.34-1.97-.02-.64-.15-1.22-.39-1.76-.24-.54-.59-1.01-1.06-1.42-.46-.41-1.02-.73-1.67-.96-.75-.27-1.49-.36-2.21-.26s-1.45.35-2.18.77l-1.91-3.6c1.11-.67,2.33-1.06,3.67-1.16,1.34-.1,2.74.11,4.2.64Z"/>
        <path class="cls-1" d="M80.28,230.32l-7.59-4.43,1.85-3.17,11.65,6.8-8.47,14.51-11.38-6.64,1.85-3.17,7.32,4.27,4.77-8.17ZM77.24,236.21l-6.74-3.93,1.79-3.07,6.74,3.93-1.79,3.07Z"/>
        <path class="cls-1" d="M70.47,219.72l-10.75,12.92-3.65-3.04,8.33-10.02-6.16-5.13,2.41-2.9,9.81,8.17Z"/>
        <path class="cls-1" d="M57.64,208.44l-12.68,11.01-3.12-3.59,9.84-8.54-5.26-6.05,2.85-2.47,8.37,9.64Z"/>
        <path class="cls-1" d="M41.22,193.2l-4.56-7.51,3.14-1.91,7,11.53-14.36,8.72-6.84-11.26,3.14-1.91,4.4,7.24,8.08-4.91ZM35.74,196.92l-4.05-6.67,3.04-1.84,4.05,6.67-3.04,1.84Z"/>
        <path class="cls-1" d="M37.6,179.43l-15.74,5.88-1.37-3.66,7.24-12.59.65,1.73-10.48,3.91-1.63-4.36,15.74-5.88,1.37,3.66-7.24,12.59-.65-1.73,10.48-3.91,1.63,4.36Z"/>
        <path class="cls-1" d="M29.62,150.77c.22,1.31.21,2.56-.03,3.74-.24,1.18-.67,2.24-1.31,3.18-.64.94-1.45,1.73-2.42,2.36-.97.63-2.09,1.05-3.36,1.26-1.26.21-2.46.17-3.58-.12-1.12-.28-2.14-.77-3.05-1.45-.91-.69-1.66-1.55-2.26-2.59-.6-1.04-1.01-2.22-1.23-3.53-.25-1.53-.21-2.95.13-4.24.34-1.3.94-2.43,1.82-3.4l3.19,2.54c-.54.64-.93,1.31-1.15,2-.23.7-.27,1.44-.14,2.23.11.68.32,1.29.64,1.82.32.53.72.96,1.2,1.3.48.33,1.04.57,1.66.7.62.13,1.29.14,2,.02.71-.12,1.34-.34,1.89-.66.55-.33.99-.72,1.35-1.2.35-.47.59-1.01.72-1.61.13-.6.14-1.25.02-1.93-.13-.79-.41-1.48-.85-2.06-.44-.58-1.02-1.09-1.74-1.53l2.21-3.43c1.13.64,2.06,1.52,2.81,2.64.75,1.12,1.24,2.44,1.5,3.97Z"/>
        <path class="cls-1" d="M24.38,134.49l.15-8.78,3.67.06-.23,13.49-16.8-.29.23-13.17,3.67.06-.15,8.47,9.45.16ZM17.76,134.71l.13-7.8,3.55.06-.13,7.8-3.55-.06Z"/>
      </g>
      <g>
        <circle class="cls-1" cx="244.94" cy="106.56" r="8.7"/>
        <g>
          <path class="cls-2" d="M245.41,103.76c.1.4.51.65.91.55s.65-.51.55-.91-.51-.65-.91-.55-.65.51-.55.91Z"/>
          <path class="cls-2" d="M247.33,108.72l1.34-.33-.33-1.34-1.34.33-.33-1.34-1.34.33.33,1.34h0l-1.39.34c-.94.23-1.88-.28-2.09-1.14s.39-1.75,1.33-1.98l1.35-.33-.33-1.34-1.35.33c-1.68.41-2.73,2.04-2.34,3.64s2.07,2.56,3.76,2.15l1.39-.34h0s.33,1.34.33,1.34l1.34-.33-.33-1.34Z"/>
        </g>
      </g>
      <g>
        <circle class="cls-1" cx="24.29" cy="103.62" r="8.7"/>
        <g>
          <path class="cls-2" d="M22.6,105.91c.1-.4-.16-.81-.56-.9s-.81.16-.9.56.16.81.56.9.81-.16.9-.56Z"/>
          <path class="cls-2" d="M23.14,100.62l-1.34-.32-.32,1.34,1.34.32-.32,1.34,1.34.32.32-1.34h0l1.39.33c.94.22,1.55,1.1,1.35,1.96-.2.86-1.14,1.38-2.08,1.16l-1.35-.32-.32,1.34,1.35.32c1.68.4,3.36-.58,3.74-2.19.38-1.6-.69-3.23-2.37-3.62l-1.39-.33h0s.32-1.34.32-1.34l-1.34-.32-.32,1.34Z"/>
        </g>
      </g>
    </g>
  </g>
</svg>