<?xml version="1.0" encoding="UTF-8"?>
<svg id="Layer_2" data-name="Layer 2" xmlns="http://www.w3.org/2000/svg" viewBox="0 0 342.1 67.84">
  <defs>
    <style>
      .cls-1 {
        fill: #1a1a1a;
        stroke-width: 0px;
      }
    </style>
  </defs>
  <g id="Layer_1-2" data-name="Layer 1">
    <g>
      <g>
        <path class="cls-1" d="M73.4,31.72l.03-31.14h-16.99v8.57h4.74v22.57h-4.74v8.56h21.64v-8.56h-4.68Z"/>
        <path class="cls-1" d="M105.98.58v18l-.29.18-1.8-3.42L93.65.58h-10.18v39.7h11.16v-17.59l.29-.12,1.22,2.44,10.59,15.27h10.42V.58h-11.17Z"/>
        <path class="cls-1" d="M147.07,28.77c-.43,1.12-1.12,1.91-2.09,2.37-.96.46-2.27.69-3.93.69-1.24,0-2.29-.24-3.16-.72-.86-.48-1.52-1.17-1.96-2.05-.45-.89-.67-1.89-.67-3.01v-11.23c0-.85.14-1.63.41-2.34.27-.72.65-1.32,1.15-1.83.5-.5,1.11-.89,1.83-1.18.71-.29,1.51-.44,2.4-.44,1.43,0,2.59.24,3.5.73.91.48,1.57,1.29,2,2.43.42,1.14.63,2.69.63,4.66h11.4c0-2.82-.41-5.28-1.24-7.38-.83-2.11-2-3.86-3.5-5.27-1.51-1.41-3.27-2.46-5.3-3.15-2.02-.7-4.21-1.05-6.56-1.05h-1.63c-2.39,0-4.67.42-6.85,1.25s-4.12,2.01-5.82,3.53c-1.7,1.52-3.03,3.35-3.99,5.47-.97,2.12-1.45,4.49-1.45,7.12v6.13c0,2.74.46,5.19,1.39,7.35.93,2.16,2.22,3.98,3.88,5.47s3.59,2.61,5.78,3.39c2.2.77,4.58,1.15,7.12,1.15h1.62c2.36,0,4.54-.38,6.54-1.15,2.01-.78,3.76-1.89,5.27-3.33,1.5-1.45,2.67-3.21,3.5-5.3.83-2.08,1.24-4.42,1.24-7l-10.88.06c0,1.96-.21,3.51-.63,4.63Z"/>
        <path class="cls-1" d="M184.51.58v26.91c0,1.28-.44,2.32-1.33,3.13-.89.81-1.99,1.21-3.3,1.21s-2.42-.4-3.33-1.21c-.9-.81-1.36-1.85-1.36-3.13V.58h-12.21v26.86c0,2.66.6,5,1.8,7.03,1.19,2.02,2.92,3.6,5.18,4.71,2.25,1.12,4.94,1.68,8.07,1.68h2.49c3.16,0,5.96-.56,8.39-1.68,2.43-1.11,4.34-2.69,5.73-4.71,1.39-2.03,2.08-4.37,2.08-7.03V.58h-12.21Z"/>
        <path class="cls-1" d="M235.5,25.32c-.43-1.02-1.01-1.91-1.74-2.66s-1.55-1.36-2.46-1.82c-.91-.46-1.82-.81-2.75-1.04v-.23c1.2-.43,2.3-1.05,3.3-1.86,1-.81,1.81-1.86,2.43-3.15.62-1.29.93-2.86.93-4.72,0-2.04-.5-3.75-1.48-5.12s-2.3-2.4-3.96-3.09c-1.66-.7-3.48-1.05-5.44-1.05h-21.3v39.7h21.35c2.05,0,3.96-.47,5.73-1.41,1.78-.95,3.23-2.28,4.34-4,1.12-1.71,1.68-3.71,1.68-5.99,0-1.35-.21-2.53-.63-3.56ZM214.2,9.03h6.65c.81,0,1.5.23,2.06.67.56.44.84,1.24.84,2.4,0,.62-.09,1.22-.26,1.79-.18.58-.48,1.05-.9,1.39-.42.35-1,.52-1.74.52h-6.65v-6.77ZM224.01,29.55c-.29.6-.71,1.05-1.25,1.36-.54.31-1.17.46-1.91.46h-6.65v-7.12h6.77c.62,0,1.19.11,1.71.32.52.21.94.54,1.27.99.33.44.49,1.05.49,1.82,0,.85-.14,1.57-.43,2.17Z"/>
        <path class="cls-1" d="M263.16.58l-6.08,13.02h-.29l-5.96-13.02h-13.66l13.14,24.48v15.22h12.21v-15.22l13.08-24.48h-12.44Z"/>
        <path class="cls-1" d="M275.95.58v9.55h9.95v30.15h12.21V10.13h10.02V.58h-32.18Z"/>
        <path class="cls-1" d="M324.22,31.02v-6.54h16.08v-8.85h-16.08v-5.79h16.72l1.16-9.26h-29.81v39.7h29.81l-1.16-9.26h-16.72Z"/>
      </g>
      <rect class="cls-1" x="8.54" y="11.43" width="4.68" height="17.43"/>
      <path class="cls-1" d="M0,0v40.28h40.28V0H0ZM15.19,30.82H6.57V9.47h8.62v21.35ZM33.7,30.82h-15.26V9.47h15.26v21.35ZM31.73,21.13h-5.05v-1.97h5.05v-7.73h-11.32v17.43h11.32v-7.73Z"/>
      <g>
        <path class="cls-1" d="M9.38,62.5c-.17-.37-.4-.67-.68-.89-.27-.23-.56-.4-.85-.51-.29-.11-.56-.19-.79-.23v-.12c.36-.1.72-.27,1.07-.52.35-.25.64-.6.87-1.03.23-.43.35-.98.35-1.63,0-.6-.14-1.14-.42-1.6-.27-.47-.66-.84-1.18-1.1-.51-.26-1.1-.39-1.78-.39H0v13.16h5.87c.75,0,1.4-.16,1.96-.49.56-.32,1.01-.77,1.33-1.34.33-.57.49-1.21.49-1.93,0-.55-.09-1.01-.27-1.38ZM1.98,56.05h3.55c.6,0,1.06.17,1.37.51.31.34.47.82.47,1.43,0,.39-.09.74-.26,1.08-.17.33-.42.59-.73.79-.31.2-.67.3-1.08.3H1.98v-4.11ZM7.36,64.97c-.19.34-.44.6-.76.8-.32.2-.68.3-1.09.3H1.98v-4.34h3.53c.39,0,.75.09,1.07.27s.58.43.77.75c.19.32.29.69.29,1.11s-.09.77-.28,1.11Z"/>
        <path class="cls-1" d="M20.02,54.48l-3.42,6.12h-.06l-3.35-6.12h-2.33l4.61,8.08v5.08h2.03v-5.08l4.59-8.08h-2.07Z"/>
        <path class="cls-1" d="M33.07,56.09v-1.61h-5.09v1.61h1.52v9.94h-1.52v1.61h5.09v-1.61h-1.52v-9.94h1.52Z"/>
        <path class="cls-1" d="M34.87,54.48v1.61h4.05v11.55h2.05v-11.55h4.05v-1.61h-10.15Z"/>
        <path class="cls-1" d="M55.93,66.03h-6.53v-4.3h5.82v-1.61h-5.82v-4.03h6.41l.25-1.61h-8.69v13.16h8.82l-.26-1.61Z"/>
        <path class="cls-1" d="M64.6,60.74l4.22-6.26h-2.19l-3.2,4.76h-.04l-3.17-4.76h-2.38l4.21,6.26-4.65,6.9h2.21l3.59-5.39h.06l3.59,5.39h2.39l-4.64-6.9Z"/>
        <path class="cls-1" d="M78.81,64.83c-.29.52-.68.88-1.18,1.09-.5.2-1.07.3-1.71.3s-1.2-.12-1.69-.37c-.48-.25-.86-.68-1.14-1.3-.27-.61-.41-1.46-.41-2.55v-1.88c0-.82.08-1.5.24-2.04.16-.55.39-.98.68-1.3.3-.32.64-.54,1.04-.68.39-.13.82-.2,1.28-.2.63,0,1.19.1,1.67.31.49.2.88.56,1.16,1.08.29.52.44,1.26.44,2.22h1.91c0-.98-.13-1.79-.4-2.46-.27-.66-.63-1.2-1.09-1.61-.46-.41-1-.71-1.6-.88-.61-.18-1.26-.27-1.93-.27h-.23c-.73,0-1.41.11-2.05.32-.63.22-1.19.57-1.68,1.06-.48.49-.87,1.13-1.15,1.94-.28.8-.42,1.79-.42,2.95v1c0,1.19.14,2.19.41,2.99.28.81.65,1.45,1.13,1.93.48.48,1.04.83,1.68,1.04.64.21,1.33.32,2.08.32h.23c.67,0,1.32-.1,1.93-.3.6-.2,1.14-.5,1.6-.91.46-.41.82-.95,1.09-1.6.27-.66.4-1.46.4-2.39h-1.86c0,.94-.14,1.67-.43,2.19Z"/>
        <path class="cls-1" d="M98.56,66.79c-.03-.4-.05-.93-.05-1.58v-4.49h-5.6v1.46h3.72v.74c0,.66-.09,1.2-.26,1.63-.17.42-.41.76-.72,1-.3.25-.66.42-1.05.52-.4.1-.82.15-1.25.15-.47,0-.91-.06-1.31-.2-.39-.13-.74-.36-1.03-.68-.3-.32-.52-.75-.68-1.29-.16-.55-.24-1.23-.24-2.05v-1.88c0-.82.08-1.5.24-2.04.16-.55.38-.98.68-1.3.29-.32.64-.54,1.03-.68.4-.13.84-.2,1.31-.2.57,0,1.11.1,1.6.29.49.19.89.52,1.19.98.3.46.45,1.1.45,1.92h1.92c0-.86-.13-1.59-.4-2.2s-.63-1.11-1.1-1.49c-.46-.38-.98-.67-1.58-.84-.59-.18-1.22-.27-1.89-.27h-.25c-.75,0-1.46.11-2.11.33-.65.23-1.22.59-1.7,1.08s-.85,1.14-1.12,1.94-.4,1.77-.4,2.92v1c0,1.15.12,2.13.38,2.93s.61,1.44,1.08,1.94c.46.49,1,.85,1.63,1.07.62.22,1.3.34,2.03.34h.13c.76,0,1.49-.16,2.19-.46.71-.31,1.26-.77,1.65-1.39l.39,1.65h1.19c-.02-.16-.04-.45-.07-.85Z"/>
        <path class="cls-1" d="M111.7,66.84c-.13-.09-.24-.23-.32-.4-.08-.18-.14-.42-.18-.71-.04-.3-.06-.68-.06-1.16,0-.62-.08-1.15-.25-1.57-.17-.42-.37-.75-.6-1-.24-.24-.47-.42-.7-.54-.22-.13-.4-.21-.52-.25v-.09c.42-.17.81-.42,1.16-.75.35-.33.63-.72.84-1.17.21-.45.32-.93.32-1.46,0-.66-.17-1.24-.5-1.73-.33-.48-.76-.86-1.29-1.13-.52-.27-1.1-.4-1.72-.4h-6.16v13.16h2.03v-5.58h3.15c.24,0,.49.05.75.15.25.11.5.28.73.51.23.24.41.56.54.97.14.41.2.93.2,1.57,0,.68.1,1.2.28,1.56.19.36.42.6.71.73.29.13.59.19.91.19.22,0,.43-.02.63-.05.2-.03.35-.07.47-.12v-.5c-.15-.06-.3-.14-.42-.23ZM108.35,60.1c-.3.25-.65.37-1.03.37h-3.57v-4.38h3.59c.59,0,1.07.16,1.45.49.38.33.57.79.57,1.39,0,.42-.1.82-.28,1.2-.19.38-.43.69-.73.93Z"/>
        <path class="cls-1" d="M124.8,57.66c-.26-.8-.64-1.45-1.13-1.94-.48-.5-1.05-.85-1.69-1.08-.64-.22-1.33-.33-2.07-.33h-.38c-.72,0-1.4.11-2.04.33-.64.23-1.2.58-1.7,1.08-.49.49-.88,1.14-1.16,1.94-.28.8-.42,1.76-.42,2.9v1c0,1.15.14,2.13.41,2.93.28.8.66,1.44,1.14,1.94.49.49,1.06.85,1.7,1.07.65.22,1.34.34,2.07.34h.38c.72,0,1.39-.12,2.03-.34.63-.22,1.19-.58,1.69-1.07.5-.5.89-1.14,1.16-1.94.28-.8.42-1.78.42-2.93v-1c0-1.14-.14-2.1-.41-2.9ZM123.1,62.02c0,.82-.09,1.5-.26,2.04-.18.53-.42.96-.73,1.28-.32.32-.67.55-1.08.68-.4.14-.84.2-1.33.2-.46,0-.9-.06-1.31-.2-.41-.13-.76-.36-1.07-.68-.31-.32-.55-.75-.72-1.29-.17-.55-.26-1.23-.26-2.05v-1.88c0-.82.09-1.5.26-2.04.17-.55.41-.97.72-1.29.31-.31.67-.54,1.08-.67.42-.13.86-.2,1.32-.2s.91.07,1.31.2c.41.13.76.36,1.08.67.31.32.55.75.73,1.3.17.55.26,1.23.26,2.05v1.88Z"/>
        <path class="cls-1" d="M135.86,54.48v8.9c0,.84-.25,1.52-.75,2.05s-1.21.79-2.13.79-1.6-.26-2.1-.78c-.51-.53-.76-1.21-.76-2.06v-8.9h-2.03v8.96c0,.88.18,1.66.56,2.31.38.66.92,1.18,1.62,1.54.71.36,1.53.55,2.48.55h.36c.94,0,1.77-.19,2.49-.55.72-.36,1.29-.88,1.7-1.55.41-.66.61-1.43.61-2.3v-8.96h-2.05Z"/>
        <path class="cls-1" d="M150.55,56.24c-.33-.55-.77-.98-1.33-1.29-.57-.31-1.19-.47-1.88-.47h-5.95v13.16h2.03v-5.52h3.82c.7,0,1.34-.18,1.91-.53.57-.35,1.03-.82,1.37-1.41.35-.59.52-1.22.52-1.9v-.19c0-.68-.16-1.29-.49-1.85ZM148.73,59.4c-.19.34-.44.61-.76.81-.32.2-.69.3-1.11.3h-3.44v-4.42h3.4c.65,0,1.18.21,1.58.62.4.42.6.94.6,1.55,0,.42-.09.8-.27,1.14Z"/>
      </g>
    </g>
  </g>
</svg>