<?xml version="1.0" encoding="UTF-8"?>
<svg id="Layer_2" data-name="Layer 2" xmlns="http://www.w3.org/2000/svg" xmlns:xlink="http://www.w3.org/1999/xlink" viewBox="0 0 7284.51 2067.54">
  <defs>
    <style>
      .cls-1 {
        stroke: #000;
        stroke-miterlimit: 10;
      }

      .cls-1, .cls-2 {
        fill: none;
      }

      .cls-2, .cls-3 {
        stroke-width: 0px;
      }

      .cls-3 {
        fill: url(#Chains-outline-black);
      }
    </style>
    <pattern id="Chains-outline-black" x="0" y="0" width="700" height="590" patternTransform="translate(3995.39 -5607.98)" patternUnits="userSpaceOnUse" viewBox="0 0 700 590">
      <g>
        <rect class="cls-2" width="700" height="590"/>
        <g>
          <path class="cls-1" d="M699.76,342.62c57.28,0,103.88,49.02,103.88,109.27v48.22h-48.01v-48.22c0-33.78-25.06-61.25-55.87-61.25s-55.87,27.48-55.87,61.25v48.07h-48.01v-48.07c0-60.25,46.6-109.27,103.88-109.27Z"/>
          <polygon class="cls-1" points="569.65 528.01 669.87 528.01 669.87 575.75 569.65 575.75 569.65 528.01"/>
        </g>
        <g>
          <path class="cls-1" d="M-.24,342.62c57.28,0,103.88,49.02,103.88,109.27v48.22h-48.01v-48.22c0-33.78-25.06-61.25-55.87-61.25s-55.87,27.48-55.87,61.25v48.07h-48.01v-48.07c0-60.25,46.6-109.27,103.88-109.27Z"/>
          <circle class="cls-1" cx="79.63" cy="551.88" r="26.2"/>
        </g>
        <g>
          <path class="cls-1" d="M700.24,247.38c-57.28,0-103.88-49.02-103.88-109.27v-48.22h48.01v48.22c0,33.78,25.06,61.25,55.87,61.25s55.87-27.48,55.87-61.25v-48.07h48.01v48.07c0,60.25-46.6,109.27-103.88,109.27Z"/>
          <circle class="cls-1" cx="620.37" cy="38.12" r="26.2"/>
        </g>
        <g>
          <g>
            <path class="cls-1" d="M350.24,542.38c-57.28,0-103.88-49.02-103.88-109.27v-48.22h48.01v48.22c0,33.78,25.06,61.25,55.87,61.25s55.87-27.48,55.87-61.25v-48.07h48.01v48.07c0,60.25-46.6,109.27-103.88,109.27Z"/>
            <circle class="cls-1" cx="270.37" cy="333.12" r="26.2"/>
            <rect class="cls-1" x="380.13" y="309.25" width="100.22" height="47.74"/>
          </g>
          <g>
            <path class="cls-1" d="M349.76,47.62c57.28,0,103.88,49.02,103.88,109.27v48.22h-48.01v-48.22c0-33.78-25.06-61.25-55.87-61.25s-55.87,27.48-55.87,61.25v48.07h-48.01v-48.07c0-60.25,46.6-109.27,103.88-109.27Z"/>
            <circle class="cls-1" cx="429.63" cy="256.88" r="26.2"/>
            <polygon class="cls-1" points="219.65 233.01 319.87 233.01 319.87 280.75 219.65 280.75 219.65 233.01"/>
          </g>
        </g>
        <g>
          <path class="cls-1" d="M.24,247.38c-57.28,0-103.88-49.02-103.88-109.27v-48.22h48.01v48.22c0,33.78,25.06,61.25,55.87,61.25s55.87-27.48,55.87-61.25v-48.07h48.01v48.07c0,60.25-46.6,109.27-103.88,109.27Z"/>
          <rect class="cls-1" x="30.13" y="14.25" width="100.22" height="47.74"/>
        </g>
      </g>
    </pattern>
  </defs>
  <g id="Layer_1-2" data-name="Layer 1">
    <rect class="cls-3" width="7284.51" height="2067.54"/>
  </g>
</svg>