<svg width="111" height="111" viewBox="0 0 111 111" fill="none" xmlns="http://www.w3.org/2000/svg">
<rect y="0.151123" width="110.698" height="110.698" fill="white"/>
<g clip-path="url(#clip0_762_242)">
<path d="M69.0824 47.5483C69.0491 47.4865 69.0342 47.4522 69.0342 47.4522C69.0434 47.4442 69.0525 47.4362 69.0629 47.4282C69.0663 47.4694 69.072 47.5094 69.0824 47.5483Z" fill="#2C2C31"/>
<path d="M79.5933 50.6006C78.9782 50.8281 78.3494 50.9402 77.7366 50.9871C76.7945 51.0569 75.8914 50.9688 75.142 50.8922C73.6261 50.7389 72.4614 50.3433 71.5755 49.8733C71.1727 49.6594 70.8284 49.4307 70.5347 49.202C74.5591 46.5192 78.3173 48.4941 79.3317 50.1271C79.4292 50.2849 79.5164 50.4439 79.5933 50.6006Z" fill="#2C2C31"/>
<path d="M93.5546 60.1893C93.496 58.9257 92.2946 55.8083 89.3259 53.942C84.7954 51.0933 80.1869 53.0431 80.1869 53.0431C80.1869 53.0431 80.2087 51.8618 79.5936 50.6005C79.5168 50.4438 79.4295 50.2848 79.332 50.127C78.3176 48.494 74.5594 46.5191 70.535 49.2019C69.9257 49.6067 69.3117 50.119 68.6989 50.7548C69.1534 50.2837 68.0575 48.5729 66.6265 48.1898C64.4955 47.6203 62.0122 49.2819 61.3341 50.5867C60.1831 49.5644 59.1457 48.1978 57.4703 47.9279C55.5069 47.6123 53.182 49.5472 53.7947 50.8978C52.6518 48.3774 49.8667 47.6192 47.761 47.7495C44.6076 47.944 43.0171 50.1099 43.0171 50.1099C43.0171 50.1099 42.0796 49.1767 41.6125 48.709C42.6384 47.4854 43.7171 46.9433 44.4756 45.3549C45.249 43.4589 43.9856 40.9819 42.4032 40.2878C39.5068 39.0173 37.4561 40.8493 36.1238 42.8734C35.9873 42.4663 35.573 42.1026 35.2494 41.7835C34.7594 41.2964 34.2775 40.8035 33.7783 40.3221C32.7925 39.5296 31.5945 38.8857 30.0786 40.2443C28.5616 41.6017 27.2672 42.998 25.3508 43.6967C23.4436 44.647 21.3803 45.2303 19.7703 46.949C17.9561 48.8371 17.8161 52.2038 19.776 53.99C17.6577 55.6322 17.061 58.5757 17.9228 60.705C19.5351 64.6858 22.8893 65.436 24.7242 65.5069C26.6418 65.5812 28.5868 64.8002 29.9191 63.0802C30.5181 62.3392 31.0908 61.1956 31.6519 59.7536C31.9629 61.5147 33.2768 64.0797 36.1652 65.0289C38.5555 65.8157 41.3532 64.8985 42.9689 63.1511C45.8079 66.5887 49.7187 66.7419 53.4539 63.8281C54.4225 64.6789 54.6474 65.5263 56.3549 65.5446C58.0647 65.6636 58.9024 64.2821 59.9788 63.0036C60.8268 63.771 61.4109 65.3422 64.1639 65.3422C66.514 65.3422 67.4045 64.2227 68.6393 62.8996C71.9912 66.9478 77.3296 66.209 80.7171 63.2449C81.6305 62.5633 82.4189 61.9733 83.1051 61.9733C84.4053 62.0053 85.243 62.2329 85.8385 62.6628C86.9964 63.8064 88.0739 65.245 89.9111 65.1787C92.3864 65.0392 93.6751 63.3341 93.5546 60.1893ZM72.9666 57.2046C73.2925 55.9913 73.9994 55.7259 73.9994 55.7259C73.9994 55.7259 74.0533 57.2698 75.8515 57.4802C73.996 59.5661 73.0148 59.1898 73.0148 59.1898C73.0148 59.1898 72.6625 58.3356 72.9666 57.2046ZM38.1114 58.3619C38.2365 57.0525 38.6725 55.4298 39.1028 54.1787C39.6479 54.173 40.1402 54.1535 40.5786 54.1215C40.5246 54.2953 40.473 54.4714 40.4294 54.6487C40.1597 55.8517 39.1786 57.423 38.1114 58.3619ZM26.8781 50.3958C26.7668 50.836 26.659 51.274 26.5522 51.7074C26.4891 51.9647 26.426 52.2198 26.3629 52.4736C26.1139 52.2232 25.8637 51.9762 25.6147 51.728C25.6641 51.2923 26.0382 50.8932 26.8781 50.3958Z" fill="#2C2C31"/>
<path d="M85.9157 42.6789L82.4593 43.3994C82.2952 42.5657 81.4024 40.1494 76.5724 39.6176C72.1911 39.1362 70.5731 40.8389 70.0372 41.7241L66.4971 39.8989L77.6878 34.236L85.9157 42.6789Z" fill="white"/>
<path d="M69.0835 47.5507C69.1145 47.6787 69.1845 47.7931 69.2832 47.8823C69.1879 47.7405 69.1225 47.6261 69.0835 47.5507ZM81.3529 49.5439C81.4952 49.4787 81.6088 49.3678 81.6766 49.2306C81.571 49.3415 81.4631 49.4456 81.3529 49.5439Z" fill="#2C2C31"/>
<path d="M77.9115 32.8981L64.0952 39.8899L69.7124 42.7854L69.0686 47.2853C69.0617 47.3333 69.0606 47.3814 69.0629 47.4283C69.0663 47.4694 69.0721 47.5095 69.0824 47.5483C69.0824 47.5483 69.0824 47.5483 69.0836 47.5506C69.1226 47.6261 69.188 47.7405 69.2832 47.8823H69.2844C69.5093 48.2196 69.904 48.7102 70.5352 49.2019C74.5596 46.5191 78.3178 48.4941 79.3322 50.1271C79.4297 50.2849 79.5169 50.4439 79.5938 50.6005C80.2032 50.3764 80.7987 50.039 81.3519 49.5439H81.353C81.4632 49.4455 81.571 49.3415 81.6766 49.2305C81.7087 49.1665 81.7317 49.0967 81.742 49.0235L82.3846 44.5305L88.089 43.3411L77.9115 32.8981ZM81.1992 44.2206L81.1166 44.7946L80.692 47.7622C79.6363 46.8267 78.2179 46.1097 76.6676 45.7232C76.1581 45.5963 75.6337 45.5048 75.1024 45.4533C75.0163 45.4453 74.9314 45.4373 74.8465 45.4327C74.6032 45.4144 74.3634 45.4053 74.1258 45.4053C72.7522 45.4053 71.4945 45.6992 70.4457 46.2607L70.8588 43.3766L70.9414 42.8048L70.9781 42.5441C70.9988 42.4938 71.0435 42.4011 71.1216 42.2833C71.5186 41.6807 72.7981 40.425 76.4381 40.8242C80.6071 41.2827 81.1889 43.2096 81.2692 43.6476C81.2715 43.6636 81.2738 43.6762 81.275 43.6876L81.1992 44.2206ZM76.5724 39.6177C72.1911 39.1362 70.5731 40.839 70.0372 41.7241L66.497 39.899L77.6878 34.236L85.9156 42.679L82.4592 43.3995C82.2951 42.5658 81.4024 40.1494 76.5724 39.6177Z" fill="#2C2C31"/>
<path d="M81.2746 43.6877L81.1989 44.2206L81.1162 44.7946L80.6917 47.7622C79.6359 46.8268 78.2176 46.1098 76.6672 45.7232C76.1577 45.5963 75.6333 45.5048 75.102 45.4533C75.0159 45.4453 74.931 45.4373 74.8461 45.4328C74.6028 45.4145 74.363 45.4053 74.1255 45.4053C72.7519 45.4053 71.4942 45.6992 70.4453 46.2607L70.8584 43.3766L70.941 42.8048L70.9778 42.5441C70.9984 42.4938 71.0432 42.4012 71.1212 42.2834C71.5183 41.6807 72.7978 40.4251 76.4377 40.8242C80.6067 41.2827 81.1885 43.2097 81.2689 43.6476C81.2712 43.6637 81.2735 43.6762 81.2746 43.6877Z" fill="white"/>
<path d="M29.5015 74.3204L31.948 69.4888H33.4914L35.946 74.3204H34.3154L32.4001 70.1578H33.0175L31.1023 74.3204H29.5026H29.5015ZM30.8395 73.3746L31.2434 72.374H33.9505L34.3544 73.3746H30.8395Z" fill="#2C2C31"/>
<path d="M40.5767 74.4164C40.1383 74.4164 39.7344 74.3558 39.366 74.2335C38.9965 74.1111 38.674 73.9396 38.3998 73.7154C38.1255 73.4924 37.9121 73.226 37.7583 72.9184C37.6057 72.6096 37.5288 72.2723 37.5288 71.904C37.5288 71.5358 37.6057 71.1973 37.7583 70.8897C37.9109 70.5809 38.1255 70.3156 38.3998 70.0926C38.674 69.8696 38.9965 69.6969 39.366 69.5746C39.7355 69.4522 40.1395 69.3916 40.5767 69.3916C41.0885 69.3916 41.5463 69.4682 41.9503 69.6226C42.3542 69.777 42.6904 70.0034 42.9601 70.303L41.9629 71.0898C41.7839 70.9057 41.5853 70.765 41.3696 70.669C41.1527 70.5729 40.9152 70.5237 40.657 70.5237C40.4298 70.5237 40.2221 70.5558 40.0316 70.6209C39.8411 70.685 39.6793 70.7788 39.545 70.9C39.4108 71.0223 39.3052 71.1676 39.2283 71.338C39.1514 71.5084 39.1136 71.697 39.1136 71.904C39.1136 72.111 39.1514 72.2997 39.2283 72.4701C39.3052 72.6405 39.4108 72.7869 39.545 72.9081C39.6793 73.0304 39.8422 73.1231 40.0316 73.1871C40.2221 73.2511 40.4298 73.2832 40.657 73.2832C40.9152 73.2832 41.1527 73.2351 41.3696 73.1379C41.5865 73.0419 41.7839 72.8989 41.9629 72.7102L42.9601 73.497C42.6904 73.7966 42.3542 74.0242 41.9503 74.1809C41.5463 74.3375 41.0885 74.4153 40.5767 74.4153V74.4164Z" fill="#2C2C31"/>
<path d="M44.3999 74.3204L46.8464 69.4888H48.3899L50.8445 74.3204H49.2138L47.2986 70.1578H47.916L46.0007 74.3204H44.4011H44.3999ZM45.7379 73.3746L46.1419 72.374H48.8489L49.2528 73.3746H45.7379Z" fill="#2C2C31"/>
<path d="M52.7988 74.3204V69.4888H55.4187C56.0257 69.4888 56.5616 69.5883 57.0252 69.7861C57.49 69.9839 57.8526 70.263 58.1142 70.6209C58.3758 70.98 58.5055 71.4054 58.5055 71.8983C58.5055 72.3911 58.3747 72.8246 58.1142 73.1859C57.8526 73.5473 57.49 73.8263 57.0252 74.0242C56.5604 74.222 56.0245 74.3215 55.4187 74.3215H52.7988V74.3204ZM54.3664 73.2294H55.3406C55.6619 73.2294 55.9408 73.1768 56.176 73.0704C56.4113 72.9652 56.5937 72.812 56.7257 72.6119C56.8577 72.4117 56.9231 72.1762 56.9231 71.904C56.9231 71.6318 56.8565 71.3848 56.7257 71.1893C56.5937 70.9937 56.4101 70.8428 56.176 70.7375C55.9408 70.6323 55.6631 70.5786 55.3406 70.5786H54.3664V73.2294Z" fill="#2C2C31"/>
<path d="M62.3852 73.2568H65.2828V74.3204H60.8418V69.4888H65.1795V70.5523H62.3852V73.258V73.2568ZM62.2739 71.3585H64.8467V72.3729H62.2739V71.3585Z" fill="#2C2C31"/>
<path d="M67.6654 74.3204V69.4888H68.9552L71.2434 72.7742H70.5629L72.8029 69.4888H74.0927L74.1008 74.3204H72.6595L72.6434 71.4008H72.889L71.2181 73.8446H70.5216L68.8037 71.4008H69.1044V74.3204H67.6631H67.6654Z" fill="#2C2C31"/>
<path d="M78.1145 74.3204V72.2768L78.4782 73.0979L75.9927 69.4877H77.6555L79.4364 72.1042H78.4863L80.2833 69.4877H81.8038L79.3423 73.0979L79.6832 72.2768V74.3204H78.1156H78.1145Z" fill="#2C2C31"/>
<path d="M23.0776 73.5211C23.7652 73.5211 24.3227 72.9656 24.3227 72.2803C24.3227 71.5951 23.7652 71.0396 23.0776 71.0396C22.39 71.0396 21.8325 71.5951 21.8325 72.2803C21.8325 72.9656 22.39 73.5211 23.0776 73.5211Z" fill="#2C2C31"/>
<path d="M85.8774 73.5211C86.565 73.5211 87.1225 72.9656 87.1225 72.2803C87.1225 71.5951 86.565 71.0396 85.8774 71.0396C85.1898 71.0396 84.6323 71.5951 84.6323 72.2803C84.6323 72.9656 85.1898 73.5211 85.8774 73.5211Z" fill="#2C2C31"/>
<path d="M32.7144 42.8321C32.851 42.3175 33.3169 41.6039 32.8062 41.1625C32.2417 40.7737 31.2926 40.7039 30.7349 41.1316C29.5094 42.8378 27.694 44.018 25.7386 44.7453C24.0023 45.6133 21.9597 46.2091 20.5896 47.69C19.0301 49.3756 19.1666 52.0859 20.9178 53.2249C22.0056 53.9327 23.5605 53.9327 23.9978 52.3901C24.2571 51.4775 22.7871 51.4512 22.5094 50.6347C21.8014 48.3864 24.3248 47.2955 25.952 46.5053C30.1348 44.6675 30.4194 41.6291 28.7245 47.993C27.5322 51.7177 27.0766 55.7533 25.19 59.2275C22.9248 62.1093 19.8196 59.2995 21.534 56.3731C22.0676 55.767 22.071 55.1243 21.2597 54.7939C20.6756 54.4954 20.1592 55.0786 19.7978 55.4617C15.6644 60.7576 23.2702 64.9465 26.9882 60.3505C29.3028 57.4881 31.6897 45.9689 32.7156 42.831L32.7144 42.8321Z" fill="white"/>
<path d="M73.6883 60.2705C72.2539 60.5644 70.3272 59.9972 69.9324 58.4076C69.6364 57.2137 69.8246 55.6711 70.4465 54.285C71.7455 51.3884 73.5529 50.6508 74.6029 50.9218C76.1165 51.3129 73.4221 53.0397 74.5914 54.412C75.5978 55.5921 77.4098 54.8019 77.878 53.2101C78.5217 51.019 76.8704 48.9469 74.1508 49.1184C70.9675 49.3403 68.467 51.9945 67.5697 54.9174C66.8341 56.3949 64.6423 61.1705 62.5733 60.2316C60.4963 59.1189 60.8222 55.8437 60.8222 55.8437C60.8222 55.8437 63.0197 53.0603 64.1282 51.9121C65.2356 50.7629 66.4933 49.8915 65.4307 49.3677C64.1431 48.733 62.8992 50.1499 62.2703 51.1825C61.8538 51.8653 60.3058 55.0009 59.7113 51.9419C59.281 50.35 58.2505 48.2939 56.2986 49.3917C55.205 50.1099 54.7953 51.4936 54.2273 52.6097C53.3058 54.962 52.2317 57.4642 50.297 59.1681C46.9576 61.7663 43.3555 60.8526 43.7468 56.8604C43.7468 56.8604 46.9117 57.5705 49.1219 56.3023C51.1002 55.1667 52.8032 52.8613 51.5765 50.7274C49.1047 46.4253 42.8035 49.7451 41.5527 54.826C41.2314 56.1308 40.5199 57.3338 39.6318 58.3825C37.0808 61.39 35.3985 59.6221 35.0324 58.4396C34.2831 56.0164 36.2752 50.9721 36.2752 50.9721C36.2752 50.9721 39.1062 51.035 40.1504 50.6668C40.5291 50.485 40.6863 50.0127 40.6072 49.6341C40.4121 48.701 37.1405 48.6278 37.1405 48.6278C37.1405 48.6278 37.2185 48.0297 38.1847 46.6323C39.4286 44.8323 40.6714 44.3897 41.3817 42.8859C42.3629 40.8092 40.3409 39.8155 38.56 41.6383C35.6326 44.6333 34.7421 48.4574 34.7421 48.4574C34.7421 48.4574 34.119 48.4494 33.5716 48.494C31.4097 48.669 31.6151 50.3134 33.2033 50.4552L34.1362 50.5501C33.6244 51.1139 30.6443 60.6559 34.7823 61.9481C38.6793 63.1649 41.3083 58.8959 41.3083 58.8959C41.3083 58.8959 43.7698 65.3834 50.0479 61.3912C53.0097 59.5077 54.0505 55.7866 55.5377 52.7321C55.9577 51.5942 56.3043 51.2809 56.5958 51.4181C57.0066 51.6125 58.1059 54.0163 58.0566 55.9204C58.0486 56.2188 54.715 59.9674 53.4963 61.6279C53.0694 62.5199 55.065 62.4353 55.4161 62.1139C56.3869 61.2265 57.3623 59.7765 58.7405 58.2887C59.0653 57.9387 59.0859 61.2963 61.0815 61.9847C63.4959 62.8172 66.0985 60.2007 67.2265 58.0623C67.5674 60.7371 69.2795 61.9755 71.2957 62.3621C76.5296 63.3673 78.3772 58.729 81.2116 58.769C84.6255 58.817 85.5871 60.4981 86.2034 61.2105C87.3199 62.4993 90.5984 62.5245 90.3402 58.3459C90.0728 54.03 84.4212 52.8705 81.946 53.8219C77.4098 55.5647 76.8991 59.6141 73.6895 60.2728L73.6883 60.2705ZM43.9867 55.0112C43.9867 55.0112 44.1416 52.9276 46.6398 51.3952C47.5888 50.8132 49.4776 50.6428 49.6543 52.1271C50.1225 56.0656 43.9867 55.0112 43.9867 55.0112Z" fill="white"/>
</g>
<defs>
<clipPath id="clip0_762_242">
<rect width="76.0197" height="41.5184" fill="white" transform="translate(17.543 32.8981)"/>
</clipPath>
</defs>
</svg>
