<svg width="32" height="32" viewBox="0 0 32 32" fill="none" xmlns="http://www.w3.org/2000/svg">
<path d="M4.56794 9.86497H2.6927V6.33718C2.6927 5.19384 3.16253 4.15097 3.91208 3.40277C4.66028 2.65322 5.70314 2.18339 6.84648 2.18339H10.3743V4.06H6.84648C6.22049 4.06 5.65562 4.31392 5.23874 4.73079C4.82323 5.14766 4.5693 5.71255 4.5693 6.33854V9.86633L4.56794 9.86497ZM27.6887 4.72943C28.1042 5.1463 28.3582 5.71119 28.3582 6.33718V9.86497H30.2347V6.33718C30.2347 5.19384 29.7649 4.15097 29.0154 3.40277C28.2672 2.65322 27.2243 2.18339 26.081 2.18339H22.5532V4.06H26.081C26.707 4.06 27.2718 4.31392 27.6887 4.73079V4.72943ZM5.23738 27.1808C4.82187 26.7639 4.56794 26.199 4.56794 25.573V22.0452H2.6927V25.573C2.6927 26.715 3.16253 27.7592 3.91208 28.5074C4.66028 29.257 5.70314 29.7268 6.84648 29.7268H10.3743V27.8516H6.84648C6.22049 27.8516 5.65562 27.5976 5.23874 27.1808H5.23738ZM28.3582 25.573C28.3582 26.199 28.1042 26.7639 27.6887 27.1808C27.2718 27.5963 26.707 27.8502 26.081 27.8516H22.5532V29.7268H26.081C27.2243 29.7268 28.2672 29.257 29.0154 28.5074C29.7649 27.7592 30.2347 26.7164 30.2347 25.573V22.0452H28.3582V25.573ZM21.2455 15.0888C20.9577 14.9924 20.6725 14.8891 20.3901 14.7724C18.9588 14.1817 17.9173 13.1918 17.3307 11.7606C17.1732 11.3777 17.0361 10.9879 16.9084 10.5928V-0.00146484H15.0902V10.8196C15.0508 10.9418 15.0169 11.064 14.9748 11.1848C14.3352 13.0166 13.1281 14.2686 11.2936 14.9231C11.1184 14.9856 10.9378 15.0331 10.7613 15.0901H0V16.9083H10.7015C10.8007 16.9409 10.9011 16.9667 11.0003 17.0007C11.8693 17.3021 12.6895 17.6946 13.3806 18.3192C14.1804 19.0402 14.6611 19.9595 15.0155 20.9562C15.0427 21.035 15.0644 21.1151 15.0916 21.1938V31.9986H16.9098V21.3866C16.9777 21.1707 17.0442 20.9548 17.123 20.7403C17.7381 19.0524 18.8448 17.8534 20.5299 17.1949C20.7974 17.0903 21.0676 16.9952 21.3392 16.907H32V15.0888H21.2469H21.2455Z" fill="white"/>
</svg>
