<svg width="32" height="32" viewBox="0 0 32 32" xmlns="http://www.w3.org/2000/svg">
<path d="M31.1633 15.1606H20.7714C20.63 15.1606 20.5012 15.1318 20.3812 15.0893C20.4737 15.0017 20.5813 14.9254 20.7101 14.8692L30.2478 10.7419C30.6718 10.558 30.8669 10.0665 30.683 9.64254C30.5004 9.21856 30.0077 9.02346 29.5837 9.20731L20.0472 13.3346C19.9772 13.3646 19.9071 13.3746 19.8371 13.3896C19.8771 13.3308 19.9121 13.2683 19.9659 13.2145L27.3137 5.86674C27.6401 5.54031 27.6401 5.01002 27.3137 4.68484C26.9873 4.35842 26.457 4.35842 26.1306 4.68484L18.7828 12.0326C18.6827 12.1327 18.5727 12.204 18.4564 12.2577C18.4601 12.1302 18.4814 12.0013 18.5339 11.8688L22.3597 2.20723C22.5298 1.77825 22.3197 1.29174 21.8907 1.12165C21.4617 0.951554 20.9752 1.16167 20.8051 1.59191L16.9793 11.2547C16.9518 11.326 16.908 11.381 16.8692 11.4423C16.8555 11.371 16.8367 11.3035 16.8367 11.2272V0.835235C16.8367 0.372482 16.4628 -0.00146484 16 -0.00146484C15.5373 -0.00146484 15.1633 0.372482 15.1633 0.835235V11.2272C15.1633 11.3685 15.1345 11.4973 15.092 11.6174C15.0057 11.5248 14.9282 11.4173 14.8719 11.2885L10.7446 1.75074C10.5608 1.32676 10.0693 1.13166 9.64528 1.31551C9.22129 1.49936 9.02619 1.9921 9.21004 2.41483L13.3373 11.9513C13.3673 12.0226 13.3773 12.0914 13.3923 12.1614C13.3336 12.1214 13.271 12.0864 13.2172 12.0326L5.86947 4.68484C5.54304 4.35842 5.01274 4.35842 4.68756 4.68484C4.36113 5.01127 4.36113 5.54031 4.68756 5.86674L12.0353 13.2145C12.1354 13.3146 12.2067 13.4246 12.2605 13.5409C12.1329 13.5372 12.0028 13.5159 11.8715 13.4634L2.20996 9.63754C1.78098 9.46744 1.29446 9.67756 1.12436 10.1078C0.954271 10.5368 1.16439 11.0233 1.59462 11.1934L11.2562 15.018C11.3274 15.0467 11.3837 15.0893 11.4438 15.1268C11.3725 15.1406 11.3049 15.1606 11.2286 15.1606H0.836716C0.375213 15.1606 0 15.5345 0 15.9973C0 16.46 0.373963 16.834 0.836716 16.834H11.2286C11.37 16.834 11.4988 16.8615 11.6176 16.9053C11.5251 16.9928 11.4175 17.0691 11.2887 17.1254L1.75221 21.2527C1.32823 21.4365 1.13312 21.928 1.31697 22.352C1.50082 22.776 1.99235 22.9711 2.41633 22.7872L11.954 18.66C12.0241 18.63 12.0941 18.6212 12.1642 18.605C12.1229 18.665 12.0891 18.7263 12.0353 18.7813L4.68756 26.1291C4.36113 26.4555 4.36113 26.9845 4.68756 27.3122C5.01399 27.6386 5.54304 27.6386 5.86947 27.3122L13.2172 19.9644C13.3173 19.8644 13.4286 19.7931 13.5437 19.7393C13.5399 19.8656 13.5187 19.9957 13.4661 20.127L9.64028 29.7898C9.47019 30.2188 9.68029 30.7053 10.1105 30.8754C10.5395 31.0455 11.026 30.8354 11.1961 30.4052L15.0207 20.7436C15.0495 20.6723 15.092 20.616 15.1308 20.5548C15.1445 20.6261 15.1633 20.6936 15.1633 20.7699V31.1618C15.1633 31.6233 15.5373 31.9985 16 31.9985C16.4628 31.9985 16.8367 31.6233 16.8367 31.1618V20.7699C16.8367 20.6285 16.8642 20.4997 16.908 20.3797C16.9943 20.4722 17.0718 20.5798 17.1281 20.7086L21.2554 30.2451C21.4392 30.669 21.9307 30.8641 22.3547 30.6803C22.7787 30.4964 22.9738 30.0037 22.79 29.581L18.6627 20.0445C18.6327 19.9732 18.6227 19.9044 18.6077 19.8344C18.6677 19.8756 18.729 19.9094 18.7828 19.9632L26.1306 27.311C26.457 27.6374 26.986 27.6374 27.3137 27.311C27.6414 26.9845 27.6401 26.4542 27.3137 26.1278L19.9659 18.78C19.8659 18.68 19.7946 18.5699 19.7408 18.4536C19.8684 18.4574 19.9972 18.4786 20.1298 18.5312L29.7913 22.357C30.2203 22.5271 30.7068 22.317 30.8769 21.8868C31.047 21.4578 30.8369 20.9712 30.4066 20.8011L20.7438 16.9753C20.6726 16.9466 20.6163 16.904 20.5562 16.8665C20.6275 16.8527 20.6951 16.834 20.7714 16.834H31.1633C31.6248 16.834 32 16.46 32 15.9973C32 15.5345 31.6261 15.1606 31.1633 15.1606Z" />
</svg>
