<svg width="111" height="111" viewBox="0 0 111 111" fill="none" xmlns="http://www.w3.org/2000/svg">
<rect y="0.151123" width="110.698" height="110.698" fill="#FF0099"/>
<path d="M54.4148 84.8795C41.8382 84.8795 31.6055 74.1179 31.6055 60.8882V50.2989H42.1467V60.8882C42.1467 68.3043 47.6517 74.3382 54.4148 74.3382C61.1779 74.3382 66.6829 68.3043 66.6829 60.8882V49.8101H77.2242V60.8882C77.2242 74.1179 66.9914 84.8795 54.4148 84.8795Z" fill="white"/>
<path d="M36.7886 44.6737C39.9661 44.6737 42.542 42.0978 42.542 38.9203C42.542 35.7428 39.9661 33.1669 36.7886 33.1669C33.6111 33.1669 31.0352 35.7428 31.0352 38.9203C31.0352 42.0978 33.6111 44.6737 36.7886 44.6737Z" fill="white"/>
<path d="M87.68 39.2568H56.0522V49.7981H87.68V39.2568Z" fill="white"/>
<path d="M77.1387 49.8022V28.7157H66.5974V49.8022H77.1387Z" fill="white"/>
</svg>
