<svg width="32" height="32" viewBox="0 0 32 32" fill="none" xmlns="http://www.w3.org/2000/svg">
<path d="M31.1633 15.1618H20.7714C19.7558 15.1618 19.2468 13.9337 19.9659 13.2158L27.3137 5.86801C27.6401 5.54159 27.6401 5.01127 27.3137 4.68609C26.9873 4.35967 26.457 4.35967 26.1305 4.68609L18.7828 12.0339C18.0649 12.7518 16.8367 12.244 16.8367 11.2272V0.835235C16.8367 0.372482 16.4628 -0.00146484 16 -0.00146484C15.5372 -0.00146484 15.1633 0.372482 15.1633 0.835235V11.2272C15.1633 12.2427 13.9351 12.7518 13.2172 12.0339L5.86946 4.68609C5.54304 4.35967 5.01275 4.35967 4.68632 4.68609C4.35989 5.01252 4.35989 5.54159 4.68632 5.86801L12.0341 13.2158C12.752 13.9337 12.2442 15.1618 11.2286 15.1618H0.836715C0.375213 15.1618 0 15.5358 0 15.9986C0 16.4613 0.373962 16.8353 0.836715 16.8353H11.2286C12.2442 16.8353 12.7532 18.0634 12.0341 18.7813L4.68632 26.1291C4.35989 26.4555 4.35989 26.9845 4.68632 27.311C5.01275 27.6374 5.54179 27.6374 5.86946 27.311L13.2172 19.9632C13.9351 19.2453 15.1633 19.7531 15.1633 20.7686V31.1606C15.1633 31.6221 15.5372 31.9973 16 31.9973C16.4628 31.9973 16.8367 31.6221 16.8367 31.1606V20.7686C16.8367 19.7531 18.0649 19.2441 18.7828 19.962L26.1305 27.3097C26.457 27.6362 26.986 27.6362 27.3137 27.3097C27.6401 26.9833 27.6401 26.453 27.3137 26.1278L19.9659 18.7801C19.248 18.0622 19.7558 16.834 20.7714 16.834H31.1633C31.6248 16.834 32 16.4601 32 15.9973C32 15.5345 31.626 15.1606 31.1633 15.1606V15.1618Z" fill="white"/>
</svg>
