<svg width="112" height="111" viewBox="0 0 112 111" fill="none" xmlns="http://www.w3.org/2000/svg">
<rect x="0.697754" y="0.151123" width="110.698" height="110.698" fill="#B4F049"/>
<path d="M55.1126 84.8795C42.536 84.8795 32.3032 74.1179 32.3032 60.8882V50.2989H42.8445V60.8882C42.8445 68.3043 48.3495 74.3382 55.1126 74.3382C61.8756 74.3382 67.3807 68.3043 67.3807 60.8882V49.8101H77.9219V60.8882C77.9219 74.1179 67.6892 84.8795 55.1126 84.8795Z" fill="white"/>
<path d="M37.4863 44.6737C40.6639 44.6737 43.2398 42.0978 43.2398 38.9203C43.2398 35.7428 40.6639 33.1669 37.4863 33.1669C34.3088 33.1669 31.7329 35.7428 31.7329 38.9203C31.7329 42.0978 34.3088 44.6737 37.4863 44.6737Z" fill="white"/>
<path d="M88.3778 39.2568H56.75V49.7981H88.3778V39.2568Z" fill="white"/>
<path d="M77.8364 49.8022V28.7157H67.2952V49.8022H77.8364Z" fill="white"/>
</svg>
