<?xml version="1.0" encoding="UTF-8"?>
<svg id="Layer_2" data-name="Layer 2" xmlns="http://www.w3.org/2000/svg" viewBox="0 0 400 400">
  <defs>
    <style>
      .cls-1 {
        fill: #1a1a1a;
      }

      .cls-1, .cls-2, .cls-3 {
        stroke-width: 0px;
      }

      .cls-2 {
        fill: #e41a3a;
      }

      .cls-3 {
        fill: #fff;
      }
    </style>
  </defs>
  <g id="Layer_1-2" data-name="Layer 1">
    <rect class="cls-3" width="400" height="400"/>
    <g>
      <g>
        <path class="cls-2" d="M267.06,219.5h-75.58v-105.67h75.58v105.67ZM201.48,209.5h55.58v-37.84h-24.76v-10h24.76v-37.84h-55.58v85.67Z"/>
        <path class="cls-2" d="M180.6,219.5h-42.79v-105.67h42.79v105.67ZM147.81,209.5h22.79v-85.67h-22.79v85.67Z"/>
      </g>
      <g>
        <path class="cls-1" d="M56.78,280.6v-8.59h4.76v-22.63h-4.76v-8.59h17.04l-.04,31.22h4.7v8.59h-21.7Z"/>
        <path class="cls-1" d="M83.88,280.6v-39.81h10.21l10.27,14.8,1.8,3.42.29-.17v-18.05h11.2v39.81h-10.45l-10.62-15.32-1.22-2.44-.29.12v17.64h-11.2Z"/>
        <path class="cls-1" d="M140.98,281.18c-2.55,0-4.93-.39-7.14-1.16-2.21-.77-4.14-1.91-5.8-3.4-1.66-1.49-2.96-3.32-3.89-5.48-.93-2.17-1.39-4.62-1.39-7.37v-6.15c0-2.63.48-5.01,1.45-7.14.97-2.13,2.3-3.96,4-5.48,1.7-1.53,3.65-2.71,5.83-3.54,2.18-.83,4.48-1.25,6.88-1.25h1.63c2.36,0,4.56.35,6.59,1.04,2.03.7,3.8,1.75,5.31,3.16,1.51,1.41,2.68,3.17,3.51,5.28.83,2.11,1.25,4.58,1.25,7.4h-11.43c0-1.97-.21-3.53-.64-4.67-.43-1.14-1.09-1.95-2-2.44-.91-.48-2.08-.73-3.51-.73-.89,0-1.69.15-2.41.44-.72.29-1.33.69-1.83,1.19-.5.5-.89,1.11-1.16,1.83-.27.72-.41,1.5-.41,2.35v11.26c0,1.12.22,2.13.67,3.02.44.89,1.1,1.58,1.97,2.06.87.48,1.92.73,3.16.73,1.66,0,2.98-.23,3.95-.7.97-.46,1.66-1.26,2.09-2.38.43-1.12.64-2.67.64-4.64l10.91-.06c0,2.59-.42,4.93-1.25,7.02-.83,2.09-2,3.86-3.51,5.31-1.51,1.45-3.27,2.56-5.28,3.34-2.01.77-4.2,1.16-6.56,1.16h-1.62Z"/>
        <path class="cls-1" d="M178.7,281.18c-3.13,0-5.83-.56-8.1-1.68-2.26-1.12-3.99-2.7-5.19-4.73-1.2-2.03-1.8-4.38-1.8-7.05v-26.93h12.24v26.98c0,1.28.45,2.32,1.36,3.13.91.81,2.02,1.22,3.34,1.22s2.42-.41,3.31-1.22c.89-.81,1.34-1.86,1.34-3.13v-26.98h12.24v26.93c0,2.67-.7,5.02-2.09,7.05-1.39,2.03-3.31,3.61-5.75,4.73-2.44,1.12-5.24,1.68-8.41,1.68h-2.5Z"/>
        <path class="cls-1" d="M203.77,280.6v-39.81h21.36c1.97,0,3.79.35,5.45,1.04,1.66.7,2.99,1.73,3.98,3.1.99,1.37,1.48,3.09,1.48,5.14,0,1.86-.31,3.43-.93,4.73-.62,1.3-1.43,2.35-2.44,3.16-1.01.81-2.11,1.43-3.31,1.86v.23c.93.23,1.85.58,2.76,1.04.91.46,1.73,1.07,2.47,1.83.73.75,1.31,1.64,1.74,2.67.43,1.03.64,2.21.64,3.57,0,2.28-.56,4.29-1.68,6.01-1.12,1.72-2.57,3.06-4.35,4-1.78.95-3.69,1.42-5.75,1.42h-21.41ZM214.97,256.05h6.67c.73,0,1.31-.17,1.74-.52.43-.35.73-.81.9-1.39.17-.58.26-1.18.26-1.8,0-1.16-.28-1.96-.84-2.41-.56-.44-1.25-.67-2.06-.67h-6.67v6.79ZM214.97,271.66h6.67c.73,0,1.37-.15,1.91-.46.54-.31.96-.76,1.25-1.36s.44-1.33.44-2.18c0-.77-.17-1.38-.49-1.83-.33-.44-.75-.77-1.28-.99-.52-.21-1.09-.32-1.71-.32h-6.79v7.14Z"/>
        <path class="cls-1" d="M251.18,280.6v-15.26l-13.17-24.55h13.7l5.98,13.06h.29l6.09-13.06h12.48l-13.11,24.55v15.26h-12.24Z"/>
        <path class="cls-1" d="M286.87,280.6v-30.23h-9.98v-9.58h32.26v9.58h-10.04v30.23h-12.24Z"/>
        <path class="cls-1" d="M313.33,280.6v-39.81h29.89l-1.16,9.29h-16.77v5.8h16.13v8.88h-16.13v6.56h16.77l1.16,9.28h-29.89Z"/>
      </g>
      <path class="cls-1" d="M311.77,234.28v-3.78h3.94v3.78h-3.94Z"/>
      <path class="cls-1" d="M317.88,234.28v-14.16h6.38c.85,0,1.66.15,2.41.44.76.3,1.42.71,2,1.24s1.03,1.16,1.35,1.88.48,1.51.48,2.36v2.04c0,.85-.16,1.66-.48,2.4-.32.75-.77,1.41-1.35,1.97-.58.56-1.25,1.01-2,1.33-.76.32-1.56.49-2.41.49h-6.38ZM322.23,230.99h1.61c.39,0,.73-.09,1.03-.28.3-.19.54-.43.72-.74s.27-.66.27-1.04v-3.65c0-.39-.09-.72-.27-1.01s-.42-.52-.72-.68c-.3-.17-.65-.25-1.03-.25h-1.61v7.66Z"/>
      <path class="cls-1" d="M331.43,234.28v-1.26l5.53-9.6h-5.04v-3.3h11.12v1.26l-5.43,9.58h5.59v3.32h-11.78Z"/>
    </g>
  </g>
</svg>