<svg class="quotation-mark" viewBox="0 0 28 21" version="1.1" xmlns="http://www.w3.org/2000/svg" xmlns:xlink="http://www.w3.org/1999/xlink">
<defs></defs>
<g id="Page-1" stroke="none" stroke-width="1" fill="none" fill-rule="evenodd">
  <g class="quotation-mark-group" transform="translate(-41.000000, -370.000000)" fill="#1F00FF">
      <g id="Link-Farm" transform="translate(41.000000, 358.000000)">
        <g id="Text-left" transform="translate(0.000000, 12.000000)">
            <path d="M1.68674699,18.776873 C0.562243373,17.2947809 0,15.36809 0,12.9967427 C0,10.2149698 0.730916386,7.67264995 2.19277108,5.36970684 C3.65462578,3.06676373 5.80239547,1.27687935 8.63614458,0 L12.886747,3.28338762 C10.9076206,4.01303296 9.24338024,5.00487972 7.8939759,6.25895765 C6.54457157,7.51303559 5.64498217,8.91530169 5.19518072,10.465798 L5.46506024,10.6710098 C5.91486169,10.2149814 6.567064,9.98697068 7.42168675,9.98697068 C8.72611094,9.98697068 9.87308742,10.4429922 10.8626506,11.3550489 C11.8522138,12.2671055 12.346988,13.5667668 12.346988,15.2540717 C12.346988,16.9869793 11.8072343,18.3778449 10.7277108,19.4267101 C9.64818737,20.4755753 8.23133407,21 6.47710843,21 C4.40802178,21 2.8112506,20.2589651 1.68674699,18.776873 Z M16.8,18.776873 C15.6754964,17.2947809 15.113253,15.36809 15.113253,12.9967427 C15.113253,10.2149698 15.8441694,7.67264995 17.3060241,5.36970684 C18.7678788,3.06676373 20.9156485,1.27687935 23.7493976,0 L28,3.28338762 C26.0208736,4.01303296 24.3566333,5.00487972 23.0072289,6.25895765 C21.6578246,7.51303559 20.7582352,8.91530169 20.3084337,10.465798 L20.5783133,10.6710098 C21.0281147,10.2149814 21.680317,9.98697068 22.5349398,9.98697068 C23.839364,9.98697068 24.9863404,10.4429922 25.9759036,11.3550489 C26.9654668,12.2671055 27.460241,13.5667668 27.460241,15.2540717 C27.460241,16.9869793 26.9204873,18.3778449 25.8409639,19.4267101 C24.7614404,20.4755753 23.3445871,21 21.5903614,21 C19.5212748,21 17.9245036,20.2589651 16.8,18.776873 Z" id="Desktop/2.About_Us-Leadership/Module_02/Icon/icon_quote_desktop"></path>
        </g>
      </g>
  </g>
</g>
</svg>