<svg width="32" height="32" viewBox="0 0 32 32" fill="none" xmlns="http://www.w3.org/2000/svg">
<path d="M31.0748 16H30.1482C30.1482 19.91 28.5665 23.4404 26.0042 26.0028C23.4404 28.5637 19.91 30.1454 16 30.1468C12.09 30.1468 8.55956 28.5651 5.99585 26.0028C3.43491 23.4391 1.8532 19.9086 1.85182 16C1.85182 12.09 3.43352 8.55956 5.99585 5.99585C8.55956 3.43352 12.09 1.85317 16 1.85178C19.91 1.85178 23.4404 3.43352 26.0042 5.99585C28.5651 8.55956 30.1468 12.09 30.1482 16H32C32 7.16344 24.8379 0 16 0C7.16344 0 0.00138504 7.16205 0 16C0 24.8366 7.16205 31.9986 16 31.9986C24.8366 31.9986 31.9986 24.8366 32 16H31.0734H31.0748Z" fill="white"/>
</svg>
