<svg width="112" height="111" viewBox="0 0 112 111" fill="none" xmlns="http://www.w3.org/2000/svg">
<rect x="0.697754" y="0.151123" width="110.698" height="110.698" fill="#FB3737"/>
<path d="M55.1121 84.8797C42.5355 84.8797 32.3027 74.1181 32.3027 60.8884V50.2991H42.844V60.8884C42.844 68.3046 48.349 74.3385 55.1121 74.3385C61.8752 74.3385 67.3802 68.3046 67.3802 60.8884V49.8103H77.9214V60.8884C77.9214 74.1181 67.6887 84.8797 55.1121 84.8797Z" fill="white"/>
<path d="M37.4858 44.6738C40.6634 44.6738 43.2393 42.0979 43.2393 38.9204C43.2393 35.7429 40.6634 33.167 37.4858 33.167C34.3083 33.167 31.7324 35.7429 31.7324 38.9204C31.7324 42.0979 34.3083 44.6738 37.4858 44.6738Z" fill="white"/>
<path d="M88.3773 39.2571H56.7495V49.7983H88.3773V39.2571Z" fill="white"/>
<path d="M77.8359 49.8025V28.7159H67.2947V49.8025H77.8359Z" fill="white"/>
</svg>
