<?xml version="1.0" encoding="UTF-8"?>
<svg id="Layer_1" data-name="Layer 1" xmlns="http://www.w3.org/2000/svg" viewBox="0 0 631.13 292.67">
  <defs>
    <style>
      .cls-1 {
        fill: #1a1a1a;
      }

      .cls-1, .cls-2 {
        stroke-width: 0px;
      }

      .cls-2 {
        fill: #f09;
      }
    </style>
  </defs>
  <g>
    <path class="cls-1" d="M484.6,4.58v20.62h20.94v4.58h-20.94v20.93h23.31v4.58h-28.83V0h28.83v4.58h-23.31Z"/>
    <path class="cls-1" d="M548.2,55.3l-13.67-23.07h-10.19v23.07h-5.53V.08h16.59c6.16,0,10.83,1.47,14.02,4.42,3.19,2.95,4.78,6.82,4.78,11.61,0,4-1.15,7.41-3.44,10.23s-5.68,4.65-10.15,5.49l14.22,23.46h-6.64ZM524.34,27.73h11.14c4.32,0,7.57-1.05,9.76-3.16,2.19-2.11,3.28-4.92,3.28-8.45s-1.05-6.44-3.16-8.41c-2.11-1.97-5.43-2.96-9.95-2.96h-11.06v22.99Z"/>
    <path class="cls-1" d="M595.83,27.41c-3.11,2.9-7.77,4.34-13.98,4.34h-11.14v23.54h-5.53V.08h16.67c6.16,0,10.81,1.45,13.94,4.34,3.13,2.9,4.7,6.74,4.7,11.53s-1.55,8.56-4.66,11.46ZM594.81,15.96c0-3.69-1.03-6.48-3.08-8.37-2.05-1.9-5.35-2.84-9.88-2.84h-11.14v22.28h11.14c8.64,0,12.96-3.69,12.96-11.06Z"/>
  </g>
  <g>
    <path class="cls-2" d="M91.72,221.96C42.19,221.96,1.9,179.57,1.9,127.47v-41.7h41.52v41.7c0,29.21,21.67,52.97,48.31,52.97s48.31-23.76,48.31-52.97v-41.57h41.52v41.57c0,52.1-40.3,94.49-89.83,94.49Z"/>
    <circle class="cls-2" cx="22.66" cy="41" r="22.66"/>
    <rect class="cls-2" x="117.57" y="20.36" width="86.67" height="41.29"/>
  </g>
  <g>
    <path class="cls-1" d="M343.47,162.93h-93.16c.64,8.35,3.33,14.72,8.06,19.14,4.73,4.42,10.55,6.62,17.45,6.62,10.27,0,17.41-4.33,21.42-13h43.81c-2.25,8.83-6.3,16.77-12.16,23.83-5.86,7.06-13.2,12.6-22.03,16.61-8.83,4.01-18.7,6.02-29.61,6.02-13.16,0-24.88-2.81-35.14-8.43-10.27-5.62-18.3-13.64-24.07-24.07-5.78-10.43-8.67-22.63-8.67-36.59s2.85-26.15,8.55-36.59c5.69-10.43,13.68-18.45,23.95-24.07,10.27-5.62,22.06-8.43,35.39-8.43s24.55,2.73,34.66,8.18c10.11,5.46,18.01,13.24,23.71,23.35,5.69,10.11,8.55,21.91,8.55,35.39,0,3.85-.24,7.86-.72,12.04ZM302.07,140.06c0-7.06-2.41-12.67-7.22-16.85-4.81-4.17-10.83-6.26-18.05-6.26s-12.72,2.01-17.45,6.02c-4.74,4.01-7.66,9.71-8.79,17.09h51.51Z"/>
    <path class="cls-1" d="M445.29,220.22l-25.76-37.31-21.67,37.31h-44.53l44.29-68.6-45.5-65.72h46.22l25.76,37.07,21.67-37.07h44.53l-45.01,67.64,46.22,66.68h-46.22Z"/>
    <path class="cls-1" d="M507.76,116.47c5.69-10.43,13.64-18.45,23.83-24.07,10.19-5.62,21.86-8.43,35.02-8.43,16.85,0,30.93,4.42,42.25,13.24,11.31,8.83,18.74,21.27,22.27,37.31h-43.81c-3.69-10.27-10.83-15.4-21.42-15.4-7.55,0-13.56,2.93-18.05,8.79-4.49,5.86-6.74,14.24-6.74,25.15s2.25,19.3,6.74,25.16c4.49,5.86,10.51,8.79,18.05,8.79,10.59,0,17.73-5.13,21.42-15.4h43.81c-3.53,15.73-10.99,28.08-22.39,37.07-11.4,8.99-25.44,13.48-42.13,13.48-13.16,0-24.84-2.81-35.02-8.43-10.19-5.62-18.14-13.64-23.83-24.07-5.7-10.43-8.55-22.63-8.55-36.59s2.85-26.15,8.55-36.59Z"/>
  </g>
</svg>