<?xml version="1.0" encoding="UTF-8"?>
<svg id="Layer_1" data-name="Layer 1" xmlns="http://www.w3.org/2000/svg" viewBox="0 0 631.13 296.78">
  <defs>
    <style>
      .cls-1 {
        fill: #1a1a1a;
      }

      .cls-1, .cls-2 {
        stroke-width: 0px;
      }

      .cls-2 {
        fill: #ff2f3b;
      }
    </style>
  </defs>
  <g>
    <path class="cls-1" d="M358.1,58.07c-2.77-1.26-4.94-3.03-6.52-5.29-1.58-2.26-2.42-4.79-2.53-7.58h5.85c.26,2.69,1.45,5.04,3.56,7.07,2.11,2.03,5.19,3.04,9.24,3.04,3.74,0,6.7-.96,8.89-2.88,2.19-1.92,3.28-4.36,3.28-7.31,0-2.37-.61-4.28-1.82-5.73-1.21-1.45-2.71-2.53-4.5-3.24-1.79-.71-4.27-1.49-7.43-2.33-3.69-1-6.61-1.98-8.77-2.92-2.16-.95-4-2.42-5.53-4.42-1.53-2-2.29-4.71-2.29-8.14,0-2.84.74-5.38,2.21-7.62,1.47-2.24,3.55-3.99,6.24-5.25,2.69-1.26,5.77-1.9,9.24-1.9,5.11,0,9.23,1.25,12.36,3.75,3.13,2.5,4.94,5.73,5.41,9.68h-6c-.37-2.26-1.61-4.28-3.71-6.04-2.11-1.76-4.95-2.65-8.53-2.65-3.32,0-6.08.88-8.29,2.65-2.21,1.77-3.32,4.17-3.32,7.23,0,2.32.61,4.19,1.82,5.61,1.21,1.42,2.73,2.5,4.54,3.24,1.82.74,4.28,1.53,7.39,2.37,3.58,1,6.48,1.99,8.69,2.96,2.21.98,4.08,2.46,5.61,4.46,1.53,2,2.29,4.69,2.29,8.06,0,2.58-.68,5.03-2.05,7.35-1.37,2.32-3.4,4.19-6.08,5.61-2.69,1.42-5.9,2.13-9.64,2.13s-6.83-.63-9.6-1.9Z"/>
    <path class="cls-1" d="M403.32,20.94v26.78c0,2.63.5,4.45,1.5,5.45,1,1,2.77,1.5,5.29,1.5h5.06v4.74h-5.93c-3.9,0-6.79-.91-8.69-2.73-1.9-1.82-2.84-4.81-2.84-8.97v-26.78h-6v-4.66h6V5.45h5.61v10.82h11.85v4.66h-11.85Z"/>
    <path class="cls-1" d="M461.62,16.27v43.13h-5.53v-7.58c-1.26,2.69-3.21,4.74-5.85,6.16s-5.58,2.13-8.85,2.13c-5.16,0-9.38-1.59-12.64-4.78-3.27-3.19-4.9-7.81-4.9-13.86v-25.2h5.45v24.57c0,4.69,1.17,8.27,3.52,10.74,2.34,2.48,5.54,3.71,9.6,3.71s7.48-1.32,9.95-3.95c2.47-2.63,3.71-6.5,3.71-11.61v-23.46h5.53Z"/>
    <path class="cls-1" d="M474.42,26.11c1.79-3.34,4.25-5.92,7.39-7.74,3.13-1.82,6.68-2.73,10.63-2.73s7.21.92,10.27,2.76c3.05,1.84,5.29,4.24,6.71,7.19V.95h5.53v58.46h-5.53v-9.64c-1.32,3-3.48,5.46-6.48,7.39-3,1.92-6.53,2.88-10.59,2.88s-7.49-.92-10.63-2.76c-3.13-1.84-5.58-4.45-7.35-7.82-1.76-3.37-2.65-7.27-2.65-11.69s.89-8.31,2.69-11.65ZM507.29,28.68c-1.42-2.63-3.36-4.66-5.81-6.08-2.45-1.42-5.15-2.13-8.1-2.13s-5.79.69-8.22,2.05c-2.42,1.37-4.33,3.36-5.73,5.96-1.4,2.61-2.09,5.7-2.09,9.28s.7,6.62,2.09,9.28c1.4,2.66,3.3,4.69,5.73,6.08,2.42,1.4,5.16,2.09,8.22,2.09s5.65-.71,8.1-2.13c2.45-1.42,4.38-3.45,5.81-6.08,1.42-2.63,2.13-5.69,2.13-9.16s-.71-6.53-2.13-9.16Z"/>
    <path class="cls-1" d="M527.51,6.95c-.79-.79-1.19-1.76-1.19-2.92s.4-2.12,1.19-2.88c.79-.76,1.74-1.15,2.84-1.15s2.05.38,2.84,1.15c.79.76,1.19,1.73,1.19,2.88s-.4,2.13-1.19,2.92-1.74,1.18-2.84,1.18-2.05-.39-2.84-1.18ZM533.12,16.27v43.13h-5.53V16.27h5.53Z"/>
    <path class="cls-1" d="M553.62,57.31c-3.24-1.82-5.79-4.4-7.66-7.74-1.87-3.34-2.8-7.25-2.8-11.73s.95-8.39,2.84-11.73c1.9-3.34,4.48-5.92,7.74-7.74,3.26-1.82,6.92-2.73,10.98-2.73s7.73.91,11.02,2.73c3.29,1.82,5.87,4.4,7.74,7.74,1.87,3.35,2.8,7.26,2.8,11.73s-.95,8.32-2.84,11.69c-1.9,3.37-4.5,5.96-7.82,7.78-3.32,1.82-7,2.73-11.06,2.73s-7.7-.91-10.94-2.73ZM572.46,53.29c2.42-1.29,4.38-3.24,5.89-5.85,1.5-2.61,2.25-5.81,2.25-9.6s-.74-6.99-2.21-9.6c-1.48-2.61-3.42-4.56-5.85-5.85-2.42-1.29-5.06-1.94-7.9-1.94s-5.48.65-7.9,1.94c-2.42,1.29-4.36,3.24-5.81,5.85-1.45,2.61-2.17,5.81-2.17,9.6s.72,6.99,2.17,9.6c1.45,2.61,3.37,4.56,5.77,5.85,2.4,1.29,5.02,1.94,7.86,1.94s5.48-.64,7.9-1.94Z"/>
  </g>
  <g>
    <path class="cls-2" d="M91.72,226.07C42.19,226.07,1.9,183.68,1.9,131.58v-41.7h41.52v41.7c0,29.21,21.67,52.97,48.31,52.97s48.31-23.76,48.31-52.97v-41.57h41.52v41.57c0,52.1-40.3,94.49-89.83,94.49Z"/>
    <circle class="cls-2" cx="22.66" cy="45.11" r="22.66"/>
    <rect class="cls-2" x="117.57" y="24.47" width="86.67" height="41.29"/>
  </g>
  <g>
    <path class="cls-1" d="M343.47,167.04h-93.16c.64,8.35,3.33,14.72,8.06,19.14,4.73,4.42,10.55,6.62,17.45,6.62,10.27,0,17.41-4.33,21.42-13h43.81c-2.25,8.83-6.3,16.77-12.16,23.83-5.86,7.06-13.2,12.6-22.03,16.61-8.83,4.01-18.7,6.02-29.61,6.02-13.16,0-24.88-2.81-35.14-8.43-10.27-5.62-18.3-13.64-24.07-24.07-5.78-10.43-8.67-22.63-8.67-36.59s2.85-26.15,8.55-36.59c5.69-10.43,13.68-18.45,23.95-24.07,10.27-5.62,22.06-8.43,35.39-8.43s24.55,2.73,34.66,8.18c10.11,5.46,18.01,13.24,23.71,23.35,5.69,10.11,8.55,21.91,8.55,35.39,0,3.85-.24,7.86-.72,12.04ZM302.07,144.17c0-7.06-2.41-12.67-7.22-16.85-4.81-4.17-10.83-6.26-18.05-6.26s-12.72,2.01-17.45,6.02c-4.74,4.01-7.66,9.71-8.79,17.09h51.51Z"/>
    <path class="cls-1" d="M445.29,224.33l-25.76-37.31-21.67,37.31h-44.53l44.29-68.6-45.5-65.72h46.22l25.76,37.07,21.67-37.07h44.53l-45.01,67.64,46.22,66.68h-46.22Z"/>
    <path class="cls-1" d="M507.76,120.58c5.69-10.43,13.64-18.45,23.83-24.07,10.19-5.62,21.86-8.43,35.02-8.43,16.85,0,30.93,4.42,42.25,13.24,11.31,8.83,18.74,21.27,22.27,37.31h-43.81c-3.69-10.27-10.83-15.4-21.42-15.4-7.55,0-13.56,2.93-18.05,8.79-4.49,5.86-6.74,14.24-6.74,25.15s2.25,19.3,6.74,25.16c4.49,5.86,10.51,8.79,18.05,8.79,10.59,0,17.73-5.13,21.42-15.4h43.81c-3.53,15.73-10.99,28.08-22.39,37.07-11.4,8.99-25.44,13.48-42.13,13.48-13.16,0-24.84-2.81-35.02-8.43-10.19-5.62-18.14-13.64-23.83-24.07-5.7-10.43-8.55-22.63-8.55-36.59s2.85-26.15,8.55-36.59Z"/>
  </g>
</svg>